<svg width="25" height="24" viewBox="0 0 25 24" fill="none" xmlns="http://www.w3.org/2000/svg">
<path d="M11.7112 3.75V1.5C11.7112 1.30109 11.7902 1.11032 11.9309 0.96967C12.0715 0.829018 12.2623 0.75 12.4612 0.75C12.6601 0.75 12.8509 0.829018 12.9915 0.96967C13.1322 1.11032 13.2112 1.30109 13.2112 1.5V3.75C13.2112 3.94891 13.1322 4.13968 12.9915 4.28033C12.8509 4.42098 12.6601 4.5 12.4612 4.5C12.2623 4.5 12.0715 4.42098 11.9309 4.28033C11.7902 4.13968 11.7112 3.94891 11.7112 3.75ZM12.4612 6C11.2745 6 10.1145 6.35189 9.12778 7.01118C8.14109 7.67047 7.37205 8.60754 6.91793 9.7039C6.4638 10.8003 6.34498 12.0067 6.57649 13.1705C6.808 14.3344 7.37945 15.4035 8.21856 16.2426C9.05768 17.0818 10.1268 17.6532 11.2907 17.8847C12.4545 18.1162 13.6609 17.9974 14.7573 17.5433C15.8537 17.0892 16.7907 16.3201 17.45 15.3334C18.1093 14.3467 18.4612 13.1867 18.4612 12C18.4595 10.4092 17.8268 8.88412 16.7019 7.75928C15.5771 6.63444 14.052 6.00174 12.4612 6ZM5.93058 6.53063C6.07131 6.67136 6.26218 6.75042 6.4612 6.75042C6.66023 6.75042 6.8511 6.67136 6.99183 6.53063C7.13256 6.38989 7.21162 6.19902 7.21162 6C7.21162 5.80098 7.13256 5.61011 6.99183 5.46938L5.49183 3.96938C5.3511 3.82864 5.16023 3.74958 4.9612 3.74958C4.76218 3.74958 4.57131 3.82864 4.43058 3.96938C4.28985 4.11011 4.21079 4.30098 4.21079 4.5C4.21079 4.69902 4.28985 4.88989 4.43058 5.03062L5.93058 6.53063ZM5.93058 17.4694L4.43058 18.9694C4.28985 19.1101 4.21079 19.301 4.21079 19.5C4.21079 19.699 4.28985 19.8899 4.43058 20.0306C4.57131 20.1714 4.76218 20.2504 4.9612 20.2504C5.16023 20.2504 5.3511 20.1714 5.49183 20.0306L6.99183 18.5306C7.06151 18.4609 7.11679 18.3782 7.1545 18.2872C7.19221 18.1961 7.21162 18.0985 7.21162 18C7.21162 17.9015 7.19221 17.8039 7.1545 17.7128C7.11679 17.6218 7.06151 17.5391 6.99183 17.4694C6.92215 17.3997 6.83942 17.3444 6.74838 17.3067C6.65733 17.269 6.55975 17.2496 6.4612 17.2496C6.36266 17.2496 6.26508 17.269 6.17403 17.3067C6.08299 17.3444 6.00026 17.3997 5.93058 17.4694ZM18.4612 6.75C18.5597 6.75008 18.6573 6.73074 18.7483 6.6931C18.8394 6.65546 18.9221 6.60025 18.9918 6.53063L20.4918 5.03062C20.6326 4.88989 20.7116 4.69902 20.7116 4.5C20.7116 4.30098 20.6326 4.11011 20.4918 3.96938C20.3511 3.82864 20.1602 3.74958 19.9612 3.74958C19.7622 3.74958 19.5713 3.82864 19.4306 3.96938L17.9306 5.46938C17.8256 5.57427 17.754 5.70796 17.7251 5.85352C17.6961 5.99908 17.7109 6.14998 17.7677 6.28709C17.8246 6.42421 17.9208 6.54139 18.0442 6.62379C18.1677 6.70619 18.3128 6.75012 18.4612 6.75ZM18.9918 17.4694C18.8511 17.3286 18.6602 17.2496 18.4612 17.2496C18.2622 17.2496 18.0713 17.3286 17.9306 17.4694C17.7898 17.6101 17.7108 17.801 17.7108 18C17.7108 18.199 17.7898 18.3899 17.9306 18.5306L19.4306 20.0306C19.5003 20.1003 19.583 20.1556 19.674 20.1933C19.7651 20.231 19.8627 20.2504 19.9612 20.2504C20.0598 20.2504 20.1573 20.231 20.2484 20.1933C20.3394 20.1556 20.4221 20.1003 20.4918 20.0306C20.5615 19.9609 20.6168 19.8782 20.6545 19.7872C20.6922 19.6961 20.7116 19.5985 20.7116 19.5C20.7116 19.4015 20.6922 19.3039 20.6545 19.2128C20.6168 19.1218 20.5615 19.0391 20.4918 18.9694L18.9918 17.4694ZM4.9612 12C4.9612 11.8011 4.88219 11.6103 4.74153 11.4697C4.60088 11.329 4.41012 11.25 4.2112 11.25H1.9612C1.76229 11.25 1.57153 11.329 1.43087 11.4697C1.29022 11.6103 1.2112 11.8011 1.2112 12C1.2112 12.1989 1.29022 12.3897 1.43087 12.5303C1.57153 12.671 1.76229 12.75 1.9612 12.75H4.2112C4.41012 12.75 4.60088 12.671 4.74153 12.5303C4.88219 12.3897 4.9612 12.1989 4.9612 12ZM12.4612 19.5C12.2623 19.5 12.0715 19.579 11.9309 19.7197C11.7902 19.8603 11.7112 20.0511 11.7112 20.25V22.5C11.7112 22.6989 11.7902 22.8897 11.9309 23.0303C12.0715 23.171 12.2623 23.25 12.4612 23.25C12.6601 23.25 12.8509 23.171 12.9915 23.0303C13.1322 22.8897 13.2112 22.6989 13.2112 22.5V20.25C13.2112 20.0511 13.1322 19.8603 12.9915 19.7197C12.8509 19.579 12.6601 19.5 12.4612 19.5ZM22.9612 11.25H20.7112C20.5123 11.25 20.3215 11.329 20.1809 11.4697C20.0402 11.6103 19.9612 11.8011 19.9612 12C19.9612 12.1989 20.0402 12.3897 20.1809 12.5303C20.3215 12.671 20.5123 12.75 20.7112 12.75H22.9612C23.1601 12.75 23.3509 12.671 23.4915 12.5303C23.6322 12.3897 23.7112 12.1989 23.7112 12C23.7112 11.8011 23.6322 11.6103 23.4915 11.4697C23.3509 11.329 23.1601 11.25 22.9612 11.25Z" fill="#82829A"/>
</svg>
