<svg width="201" height="144" viewBox="0 0 201 144" fill="none" xmlns="http://www.w3.org/2000/svg">
<g clip-path="url(#clip0_503_5220)">
<path d="M67.4963 109.918C56.2304 109.918 47.0985 107.925 47.0985 105.434C47.0985 102.943 56.2304 100.9 67.4963 100.9C78.7622 100.9 87.8941 102.943 87.8941 105.434C87.8941 107.925 78.7622 109.918 67.4963 109.918Z" fill="#A6A6A6"/>
<path d="M67.4963 105.434L56.0319 141.409L67.4963 105.434ZM67.4963 105.434L78.9608 141.409L67.4963 105.434Z" fill="#A6A6A6"/>
<path d="M56.0319 141.409L67.4963 105.434L78.9608 141.409" stroke="#A6A6A6" stroke-width="4" stroke-linecap="round"/>
<path d="M59.8037 129.6L72.5585 121.379M62.3845 121.379L75.1393 129.6" stroke="#A6A6A6" stroke-width="2" stroke-linecap="round"/>
<path d="M87.5467 66.4692C87.497 68.0636 87.5467 73.6443 87.2489 76.036" stroke="#1F161E" stroke-linecap="round"/>
<path d="M148.542 47.6346V46.4886C148.542 46.3557 148.575 46.2561 148.641 46.1896C148.674 46.09 148.723 46.0069 148.79 45.9405C148.856 45.8408 148.939 45.7744 149.038 45.7412C149.137 45.708 149.236 45.6913 149.336 45.6913H156.73C156.763 45.7246 156.797 45.7412 156.83 45.7412C156.896 45.7744 156.945 45.8076 156.979 45.8408C157.012 45.8408 157.045 45.874 157.078 45.9405L159.559 48.382L159.659 48.4817C159.692 48.5481 159.708 48.5979 159.708 48.6311C159.741 48.6644 159.758 48.7142 159.758 48.7806V60.8886C159.758 60.9882 159.741 61.0879 159.708 61.1875C159.675 61.2872 159.625 61.3702 159.559 61.4367C159.493 61.5031 159.41 61.5529 159.311 61.5862C159.212 61.6194 159.113 61.636 159.013 61.636H157.078" fill="#78E5E1"/>
<path d="M154.001 47.6346C154.034 47.6346 154.083 47.6512 154.15 47.6844C154.183 47.7176 154.232 47.7508 154.298 47.7841C154.332 47.8173 154.381 47.8505 154.447 47.8837L156.83 50.2754C156.863 50.3086 156.896 50.3585 156.929 50.4249C156.962 50.4581 156.978 50.5079 156.978 50.5744C157.012 50.6076 157.028 50.6574 157.028 50.7239C157.061 50.7903 157.078 50.8401 157.078 50.8733V62.6823C157.078 62.8152 157.045 62.9315 156.978 63.0311C156.945 63.1308 156.896 63.2304 156.83 63.3301C156.73 63.3965 156.631 63.4463 156.532 63.4796C156.433 63.546 156.317 63.5792 156.184 63.5792H146.705C146.606 63.5792 146.49 63.546 146.358 63.4796C146.258 63.4463 146.176 63.3965 146.11 63.3301C146.01 63.2304 145.944 63.1308 145.911 63.0311C145.878 62.9315 145.861 62.8152 145.861 62.6823V48.4816C145.861 48.382 145.878 48.2657 145.911 48.1329C145.944 48.0332 146.01 47.9502 146.11 47.8837C146.176 47.7841 146.258 47.7176 146.358 47.6844C146.49 47.6512 146.606 47.6346 146.705 47.6346H154.001Z" fill="#D8D8D8"/>
<path d="M157.078 50.5245H154.447C154.414 50.4913 154.365 50.4581 154.299 50.4249L154.199 50.2256C154.166 50.1924 154.15 50.1425 154.15 50.0761V47.6346" fill="#969696"/>
<path d="M159.807 48.6311H157.376C157.309 48.6311 157.243 48.6145 157.177 48.5813C157.111 48.5481 157.061 48.5149 157.028 48.4817C156.995 48.4484 156.962 48.3986 156.929 48.3322C156.896 48.2657 156.879 48.1993 156.879 48.1329V45.6913" fill="#64CCC4"/>
<path d="M128.243 32.8858C128.243 32.0387 128.888 31.391 129.732 31.391H145.316C146.159 31.391 146.854 32.0387 146.854 32.8858V37.2706C146.854 38.1176 146.159 38.8152 145.316 38.8152H129.732C128.888 38.8152 128.243 38.1176 128.243 37.2706V32.8858Z" fill="#78E5E1"/>
<path d="M135.29 37.0713H139.757L137.524 43.8976L135.29 37.0713Z" fill="#78E5E1"/>
<path d="M134.943 36.6228H131.221L133.057 33.3342L134.943 36.6228ZM140.104 33.3342H143.827L141.99 36.6228L140.104 33.3342ZM137.524 36.4235C136.73 36.4235 136.134 35.7757 136.134 34.9785C136.134 34.2311 136.73 33.5834 137.524 33.5834C138.318 33.5834 138.913 34.2311 138.913 34.9785C138.913 35.7757 138.318 36.4235 137.524 36.4235Z" fill="white"/>
<path d="M124.273 16.9412C124.273 16.2436 124.868 15.6457 125.613 15.6457H135.588C136.333 15.6457 136.928 16.2436 136.928 16.9412V22.6713C136.928 23.4187 136.333 24.0166 135.588 24.0166H125.613C124.868 24.0166 124.273 23.4187 124.273 22.6713V16.9412Z" fill="#D8D8D8"/>
<path d="M124.67 15.8948L130.625 19.8312L136.928 15.6457" stroke="#969696" stroke-width="0.8" stroke-linecap="round" stroke-linejoin="round"/>
<path d="M136.928 17.4394C135.936 17.4394 135.141 16.6422 135.141 15.6457C135.141 14.6491 135.936 13.8021 136.928 13.8021C137.921 13.8021 138.715 14.6491 138.715 15.6457C138.715 16.6422 137.921 17.4394 136.928 17.4394Z" fill="#78E5E1"/>
<path d="M152.81 21.2761C152.81 20.9772 153.058 20.728 153.355 20.728H200.256C200.553 20.728 200.752 20.9772 200.752 21.2761C200.752 21.5253 200.553 21.7744 200.256 21.7744H153.355C153.058 21.7744 152.81 21.5253 152.81 21.2761Z" fill="#D8D8D8"/>
<path d="M169.436 1.2955C169.436 0.548097 170.031 0 170.726 0H172.711C173.406 0 173.952 0.548097 173.952 1.2955V19.4823C173.952 20.1799 173.406 20.728 172.711 20.728H170.726C170.031 20.728 169.436 20.1799 169.436 19.4823V1.2955Z" fill="#969696"/>
<path d="M173.952 5.92942C173.952 5.3315 174.448 4.88306 174.994 4.88306H175.143C175.739 4.88306 176.235 5.3315 176.235 5.92942V19.6817C176.235 20.2796 175.739 20.728 175.143 20.728H174.994C174.448 20.728 173.952 20.2796 173.952 19.6817V5.92942Z" fill="#D8D8D8"/>
<path d="M176.235 5.8796C176.235 5.3315 176.682 4.88306 177.227 4.88306H177.476C178.022 4.88306 178.468 5.3315 178.468 5.8796V19.7315C178.468 20.2796 178.022 20.728 177.476 20.728H177.227C176.682 20.728 176.235 20.2796 176.235 19.7315V5.8796Z" fill="#969696"/>
<path d="M178.518 7.62354C178.27 7.07544 178.468 6.42769 179.064 6.17856H179.113C179.659 5.92942 180.304 6.12873 180.553 6.67683L186.26 19.1336C186.508 19.6817 186.26 20.3294 185.714 20.5786L185.615 20.6284C185.069 20.8775 184.424 20.6284 184.176 20.0803L178.518 7.62354ZM171.719 15.4962C171.024 15.4962 170.428 14.8983 170.428 14.2007C170.428 13.5031 171.024 12.955 171.719 12.955C172.413 12.955 172.959 13.5031 172.959 14.2007C172.959 14.8983 172.413 15.4962 171.719 15.4962ZM170.23 16.5426C170.23 16.3931 170.379 16.2436 170.577 16.2436H172.86C173.009 16.2436 173.158 16.3931 173.158 16.5426C173.158 16.7419 173.009 16.8415 172.86 16.8415H170.577C170.379 16.8415 170.23 16.7419 170.23 16.5426ZM170.23 18.0872C170.23 17.9377 170.379 17.7882 170.577 17.7882H172.86C173.009 17.7882 173.158 17.9377 173.158 18.0872C173.158 18.2865 173.009 18.436 172.86 18.436H170.577C170.379 18.436 170.23 18.2865 170.23 18.0872Z" fill="#D8D8D8"/>
<path d="M147.102 49.3786C147.102 49.2291 147.251 49.0796 147.4 49.0796H149.683C149.881 49.0796 150.03 49.2291 150.03 49.3786C150.03 49.5779 149.881 49.6775 149.683 49.6775H147.4C147.251 49.6775 147.102 49.5779 147.102 49.3786ZM147.102 50.8734C147.102 50.6741 147.251 50.5246 147.4 50.5246H149.683C149.881 50.5246 150.03 50.6741 150.03 50.8734C150.03 51.0229 149.881 51.1723 149.683 51.1723H147.4C147.251 51.1723 147.102 51.0229 147.102 50.8734ZM147.003 53.3647C147.003 53.2153 147.102 53.0658 147.301 53.0658H155.638C155.787 53.0658 155.936 53.2153 155.936 53.3647C155.936 53.5142 155.787 53.6637 155.638 53.6637H147.301C147.102 53.6637 147.003 53.5142 147.003 53.3647ZM147.003 54.8097C147.003 54.6104 147.102 54.5108 147.301 54.5108H155.638C155.787 54.5108 155.936 54.6104 155.936 54.8097C155.936 54.9592 155.787 55.1087 155.638 55.1087H147.301C147.102 55.1087 147.003 54.9592 147.003 54.8097ZM147.003 56.2547C147.003 56.0554 147.102 55.9557 147.301 55.9557H155.638C155.787 55.9557 155.936 56.0554 155.936 56.2547C155.936 56.4042 155.787 56.5537 155.638 56.5537H147.301C147.102 56.5537 147.003 56.4042 147.003 56.2547ZM174.845 7.27477C174.845 7.12529 174.944 7.02563 175.093 7.02563C175.242 7.02563 175.341 7.12529 175.341 7.27477V18.3364C175.341 18.4858 175.242 18.5855 175.093 18.5855C174.944 18.5855 174.845 18.4858 174.845 18.3364V7.27477Z" fill="#969696"/>
<path d="M162.587 22.0734C162.587 21.6249 162.934 21.2761 163.381 21.2761H165.416C165.862 21.2761 166.21 21.6249 166.21 22.0734C166.21 22.5218 165.862 22.8706 165.416 22.8706H163.381C162.934 22.8706 162.587 22.5218 162.587 22.0734ZM187.352 22.0734C187.352 21.6249 187.749 21.2761 188.196 21.2761H190.181C190.627 21.2761 191.024 21.6249 191.024 22.0734C191.024 22.5218 190.627 22.8706 190.181 22.8706H188.196C187.749 22.8706 187.352 22.5218 187.352 22.0734ZM98.217 28.8C98.217 25.5114 100.897 22.8208 104.173 22.8208H111.816C115.091 22.8208 117.771 25.5114 117.771 28.8V30.3945C117.771 33.7329 115.091 36.3737 111.816 36.3737H104.173C100.897 36.3737 98.217 33.7329 98.217 30.3945V28.8Z" fill="#D8D8D8"/>
<path d="M102.237 25.0131H105.215V34.2311H102.237V25.0131ZM106.505 31.1418H109.433V34.2311H106.505V31.1418ZM110.773 28.5508H113.702V34.2311H110.773V28.5508Z" fill="#AB8DE5"/>
<path d="M123.23 137.124C122.982 138.12 123.677 140.014 124.173 140.412C124.719 140.761 128.491 141.509 128.888 141.808C129.285 142.057 129.037 143.003 128.59 143.452C128.144 143.9 118.317 143.601 117.424 143.153C116.53 142.704 116.977 137.871 116.977 137.124" fill="#1F161E"/>
<path d="M87.2489 76.5343C83.2785 76.2851 78.7126 75.8367 78.7126 75.8367L57.8681 74.3917C57.8681 74.3917 40.1007 71.1031 40.1007 64.8249C40.1007 58.4969 41.3414 40.4595 45.2126 36.573C46.4533 35.3273 51.3666 33.3841 67.9926 33.3841C70.7718 33.3841 86.3555 34.7793 87.1496 35.5765C90.4748 38.9647 92.857 61.5862 93.1052 71.7509L87.5466 73.7439C87.5466 73.7439 87.2985 75.3384 87.2489 76.5343Z" fill="#69D2C9"/>
<path d="M104.024 79.6235C105.562 79.1751 120.65 76.6837 123.925 79.9225C127.201 83.1613 137.524 129.65 137.524 130.746H129.186L117.97 106.48" fill="#145C90"/>
<path d="M110.476 78.328C119.459 84.4069 124.422 137.821 124.422 137.821H116.431C116.332 137.024 98.9119 101.348 97.9689 99.7536C96.5296 100.451 75.4371 104.338 62.3845 104.338C58.2156 104.338 46.5526 104.039 46.5526 89.7384C46.5526 79.4242 48.8356 77.3813 49.183 75.4879C55.883 74.3418 107.597 76.3848 110.476 78.328Z" fill="#207BBD"/>
<path d="M104.867 70.4554C104.867 71.9004 102.436 72.9467 101.096 72.9467C99.1601 72.9467 97.4727 71.2526 94.1971 71.2526C92.8571 71.2526 91.8149 73.7938 87.2986 75.6374L87.5467 66.4692C92.3112 65.5225 94.0482 65.0242 96.1823 65.0242C98.763 65.0242 104.867 67.4159 104.867 70.4554Z" fill="#F8CDBA"/>
<path d="M135.936 130.098C135.687 131.095 136.382 133.038 136.928 133.387C137.424 133.736 141.246 134.533 141.643 134.782C141.99 135.031 141.742 135.978 141.296 136.426C140.849 136.875 131.022 136.626 130.129 136.177C129.236 135.729 129.682 130.895 129.682 130.098" fill="#1F161E"/>
<path d="M70.9208 35.5765C70.9208 36.7723 63.8237 36.8222 63.8237 35.5765V25.6111H70.9208V35.5765Z" fill="#F8CDBA"/>
<path d="M68.5882 28.8996C67.943 28.8996 63.8237 30.7432 63.8237 31.7398V26.3585C64.866 26.3585 68.5882 28.8996 68.5882 28.8996Z" fill="#1F161E"/>
<path d="M69.9778 29.2983C65.263 29.2983 61.3918 25.4616 61.3918 20.728C61.3918 15.9945 65.263 12.108 69.9778 12.108C74.6926 12.108 78.5141 15.9945 78.5141 20.728C78.5141 25.4616 74.6926 29.2983 69.9778 29.2983Z" fill="#F8CDBA"/>
<path d="M78.8118 14.0014C77.7696 15.6456 75.5362 16.4429 73.154 16.4429C71.0696 16.4429 68.0918 15.845 66.0074 17.0408C64.8659 17.6886 63.5259 19.1834 63.2777 22.1232C63.2777 22.6214 62.6822 24.6145 62.6822 25.2623C62.6822 25.6609 62.2355 25.9598 61.3918 25.9598C60.9948 25.9598 60.1511 25.2623 60.1511 24.2657C60.1511 23.0699 60.6474 22.6214 60.6474 21.6249C60.6474 20.5785 59.4066 19.6318 59.4066 16.7917C59.4066 12.7059 61.9874 10.2145 63.8237 10.2145C65.4614 10.2145 66.0074 10.6131 66.2059 10.7626C66.2059 7.0754 71.0696 5.38129 73.0051 5.38129C75.1888 5.38129 76.2311 6.27817 76.2311 7.47402C76.2311 9.26779 75.3377 10.8623 74.8911 11.211C75.1557 10.9785 75.4204 10.7792 75.6851 10.6131C75.9829 10.4138 76.2807 10.2643 76.5785 10.1647C76.9093 10.0318 77.2402 9.93215 77.5711 9.86572C77.9019 9.8325 78.2328 9.81589 78.5637 9.81589C81.0451 9.81589 81.8888 11.4602 81.8888 12.6062C81.8888 15.0477 78.9607 17.3398 77.8688 17.3398C77.8027 17.2069 77.7365 17.0574 77.6703 16.8913C77.5711 16.7585 77.4883 16.6256 77.4222 16.4927C77.3229 16.3598 77.2402 16.227 77.174 16.0941C77.0748 15.928 76.9755 15.7785 76.8762 15.6456" fill="#827080"/>
<path d="M63.5259 23.6678C62.5333 23.6678 61.6896 22.8706 61.6896 21.8741C61.6896 20.8277 62.5333 20.0305 63.5259 20.0305C64.5185 20.0305 65.3622 20.8277 65.3622 21.8741C65.3622 22.8706 64.5185 23.6678 63.5259 23.6678Z" fill="#F8CDBA"/>
<path d="M78.6134 22.3225C77.8193 22.3225 77.2237 21.9737 77.2237 21.5751C77.2237 21.1765 77.8193 20.8277 78.6134 20.8277C79.4074 20.8277 80.0526 21.1765 80.0526 21.5751C80.0526 21.9737 79.4074 22.3225 78.6134 22.3225ZM69.7297 22.3225C68.9356 22.3225 68.2904 21.9737 68.2904 21.5751C68.2904 21.1765 68.9356 20.8277 69.7297 20.8277C70.5237 20.8277 71.1193 21.1765 71.1193 21.5751C71.1193 21.9737 70.5237 22.3225 69.7297 22.3225Z" fill="#FA9E9F"/>
<path d="M75.1392 20.0305C75.437 20.4291 76.777 22.0235 75.3377 22.6215M72.5088 24.5149C72.0622 24.5149 71.417 23.9668 71.0696 23.5183M83.7748 47.5848C84.42 48.9799 87.5466 62.2837 87.5466 66.4692" stroke="#1F161E" stroke-linecap="round"/>
<path d="M56.4289 63.7287C56.28 64.0775 55.1385 68.1633 55.1385 69.9072C55.1385 70.854 56.0814 71.1031 56.677 71.1031C57.2229 71.1031 80.6481 65.4228 86.5044 65.4228C89.1348 65.4228 95.2392 67.8145 95.2392 70.854C95.2392 72.2989 92.8074 73.3453 91.4674 73.3453C89.5318 73.3453 87.8444 71.6512 84.5689 71.6512C80.8466 71.6512 60.0022 83.0117 46.2548 83.0117C40.2496 83.0117 40.1007 78.6768 40.1007 63.7287H56.4289Z" fill="#F8CDBA"/>
<path d="M59.8533 50.6741C59.4563 51.8201 56.3793 63.5793 56.0319 65.0242" stroke="#1F161E" stroke-linecap="round"/>
<path d="M179.659 140.811C179.907 141.708 179.361 142.605 178.518 142.854C177.624 143.103 176.731 142.555 176.483 141.658L159.956 78.5273C159.708 77.6304 160.254 76.7336 161.147 76.4844C162.041 76.2851 162.934 76.7834 163.182 77.6803L179.659 140.811Z" fill="#969696"/>
<path d="M156.582 77.6803C156.83 76.7834 157.723 76.2353 158.616 76.4844C159.46 76.7336 160.006 77.6304 159.758 78.5273L143.281 141.658C143.033 142.555 142.139 143.103 141.246 142.854C140.353 142.605 139.807 141.708 140.055 140.811L156.582 77.6803Z" fill="#969696"/>
<path d="M133.752 77.6803C134 76.7834 134.893 76.2353 135.787 76.4844C136.68 76.7335 137.176 77.6304 136.978 78.5273L120.451 141.658C120.203 142.555 119.31 143.103 118.416 142.854C117.523 142.605 117.027 141.708 117.225 140.811L133.752 77.6803ZM156.582 139.665C156.83 140.562 156.284 141.459 155.39 141.708C154.497 141.907 153.604 141.409 153.356 140.512L137.127 77.182C136.879 76.2851 137.424 75.3882 138.318 75.1391C139.211 74.8899 140.104 75.438 140.303 76.3349L156.582 139.665Z" fill="#D8D8D8"/>
<path d="M40.597 77.6803C40.8452 76.7834 41.7385 76.2353 42.6318 76.4844C43.4755 76.7336 44.0215 77.6304 43.7733 78.5273L27.2963 141.658C27.0481 142.555 26.1548 143.103 25.2615 142.854C24.3681 142.605 23.8222 141.708 24.0704 140.811L40.597 77.6803Z" fill="#969696"/>
<path d="M63.4267 140.811C63.6252 141.708 63.1289 142.605 62.2355 142.854C61.3422 143.103 60.4489 142.555 60.2007 141.658L43.6741 78.5273C43.4755 77.6304 43.9718 76.7336 44.8652 76.4844C45.7585 76.2851 46.6518 76.7834 46.9 77.6803L63.4267 140.811Z" fill="#969696"/>
<path d="M8.53625 75.6374C8.53625 74.3917 9.57848 73.3951 10.8192 73.3951H169.187C170.428 73.3951 171.421 74.3917 171.421 75.6374V76.036C171.421 77.2816 170.428 78.2782 169.187 78.2782H10.8192C9.57848 78.2782 8.53625 77.2816 8.53625 76.036V75.6374Z" fill="#D8D8D8"/>
<path d="M16.9734 77.6803C17.1719 76.7834 18.1149 76.2353 18.9586 76.4844C19.8519 76.7336 20.3978 77.6304 20.1497 78.5273L3.623 141.658C3.42448 142.555 2.48152 143.103 1.63782 142.854C0.744484 142.605 0.198558 141.708 0.446706 140.811L16.9734 77.6803Z" fill="#D8D8D8"/>
<path d="M39.7533 140.811C40.0015 141.708 39.5052 142.605 38.6118 142.854C37.7185 143.103 36.8252 142.555 36.577 141.658L20.0503 78.5273C19.8022 77.6304 20.3481 76.7336 21.2415 76.4844C22.1348 76.2851 23.0281 76.7834 23.2763 77.6803L39.7533 140.811Z" fill="#D8D8D8"/>
<path d="M128.293 73.3952H98.4155L103.825 54.6602C103.891 54.4609 103.991 54.2616 104.123 54.0623C104.255 53.863 104.421 53.6969 104.619 53.564C104.818 53.4312 105.016 53.3149 105.215 53.2153C105.446 53.1488 105.678 53.1156 105.91 53.1156H131.27C131.601 53.1156 131.916 53.182 132.213 53.3149C132.544 53.481 132.809 53.6969 133.007 53.9627C133.206 54.2284 133.338 54.5274 133.404 54.8595C133.471 55.1917 133.454 55.5239 133.355 55.8561L128.293 73.3952Z" fill="#464646"/>
<path d="M117.027 65.074C115.985 65.074 115.19 64.2768 115.19 63.2304C115.19 62.2339 115.985 61.4366 117.027 61.4366C118.019 61.4366 118.863 62.2339 118.863 63.2304C118.863 64.2768 118.019 65.074 117.027 65.074Z" fill="white"/>
<path d="M80.9956 72.0498H101.939V73.3951H80.9956V72.0498Z" fill="#464646"/>
</g>
<defs>
<clipPath id="clip0_503_5220">
<rect width="201" height="144" fill="white"/>
</clipPath>
</defs>
</svg>
