<svg width="259" height="224" viewBox="0 0 259 224" fill="none" xmlns="http://www.w3.org/2000/svg">
<g clip-path="url(#clip0_115_3918)">
<path d="M132.109 219.377C72.0524 219.377 23.5007 170.454 23.5007 109.922C23.5007 49.4227 72.0523 0.5 132.109 0.5C192.166 0.5 240.686 49.4225 240.686 109.922C240.686 170.455 192.166 219.377 132.109 219.377Z" fill="#F5F8FE" stroke="black"/>
<path d="M125.763 62.0058H192.639V166.409H125.763V62.0058Z" fill="white"/>
<path d="M112.362 125.732H180.946M112.362 132.55H180.946M112.362 139.367H180.946M112.362 146.217H180.946" stroke="black"/>
<path d="M159.201 110.085C149.537 110.085 141.709 102.196 141.709 92.4568C141.709 82.6852 149.537 74.7965 159.201 74.7965C168.865 74.7965 176.693 82.6852 176.693 92.4568C176.693 102.196 168.865 110.085 159.201 110.085Z" fill="#F2F2F2"/>
<path opacity="0.7" d="M180.946 99.1443H208.585V125.018H180.946V99.1443Z" fill="#50B89D"/>
<path d="M10.1796 15.9397H159.491M10.1796 10.6806H159.491V109.663H10.1796V10.6806Z" stroke="black"/>
<path d="M74.5108 28.7304H143.126M74.5108 35.5478H143.126M74.5108 42.3977H143.126M74.5108 49.2151H143.126M21.0357 24.7374H65.9097V69.9594H21.0357V24.7374Z" stroke="black"/>
<path d="M55.6979 58.0127H31.2475L43.4888 36.6841L55.6979 58.0127ZM13.401 14.6412C12.7245 14.6412 12.1447 14.0893 12.1447 13.3751C12.1447 12.6609 12.7245 12.0765 13.401 12.0765C14.1097 12.0765 14.6896 12.6609 14.6896 13.3751C14.6896 14.0893 14.1097 14.6412 13.401 14.6412ZM17.7821 14.6412C17.0734 14.6412 16.5257 14.0893 16.5257 13.3751C16.5257 12.6609 17.0734 12.0765 17.7821 12.0765C18.4908 12.0765 19.0706 12.6609 19.0706 13.3751C19.0706 14.0893 18.4908 14.6412 17.7821 14.6412ZM22.1632 14.6412C21.4545 14.6412 20.9068 14.0893 20.9068 13.3751C20.9068 12.6609 21.4545 12.0765 22.1632 12.0765C22.8719 12.0765 23.4517 12.6609 23.4517 13.3751C23.4517 14.0893 22.8719 14.6412 22.1632 14.6412Z" fill="#C8D1E3"/>
<path d="M75.8638 87.6197H80.1804L75.9282 91.3855L75.8638 87.6197Z" fill="#FFE181"/>
<path d="M71.7083 80.2504C71.7083 76.5496 74.6719 73.5304 78.3765 73.5304H97.7693C101.474 73.5304 104.438 76.5496 104.438 80.2504V81.3217C104.438 85.0226 101.474 88.0417 97.7693 88.0417H78.3765C74.6719 88.0417 71.7083 85.0226 71.7083 81.3217V80.2504Z" fill="#FFE181"/>
<path d="M83.6918 82.0684C82.9831 82.0684 82.4354 81.4841 82.4354 80.7699C82.4354 80.0881 82.9831 79.5038 83.6918 79.5038C84.4005 79.5038 84.9803 80.0881 84.9803 80.7699C84.9803 81.4841 84.4005 82.0684 83.6918 82.0684ZM88.0729 82.0684C87.3642 82.0684 86.8165 81.4841 86.8165 80.7699C86.8165 80.0881 87.3642 79.5038 88.0729 79.5038C88.7816 79.5038 89.3292 80.0881 89.3292 80.7699C89.3292 81.4841 88.7816 82.0684 88.0729 82.0684ZM92.454 82.0684C91.7453 82.0684 91.1654 81.4841 91.1654 80.7699C91.1654 80.0881 91.7453 79.5038 92.454 79.5038C93.1627 79.5038 93.7103 80.0881 93.7103 80.7699C93.7103 81.4841 93.1627 82.0684 92.454 82.0684Z" fill="white"/>
<path d="M210.003 48.6957L205.783 44.9299H210.099L210.003 48.6957Z" fill="#73E5E2"/>
<path d="M214.255 38.6643C214.255 42.3652 211.259 45.3843 207.587 45.3843H188.162C184.489 45.3843 181.493 42.3652 181.493 38.6643V37.5606C181.493 33.8597 184.489 30.873 188.162 30.873H207.587C211.259 30.873 214.255 33.8597 214.255 37.5606V38.6643Z" fill="#73E5E2"/>
<path d="M202.239 39.411C201.53 39.411 200.983 38.8267 200.983 38.1125C200.983 37.3983 201.53 36.8464 202.239 36.8464C202.948 36.8464 203.528 37.3983 203.528 38.1125C203.528 38.8267 202.948 39.411 202.239 39.411ZM197.858 39.411C197.182 39.411 196.602 38.8267 196.602 38.1125C196.602 37.3983 197.182 36.8464 197.858 36.8464C198.567 36.8464 199.147 37.3983 199.147 38.1125C199.147 38.8267 198.567 39.411 197.858 39.411ZM193.509 39.411C192.8 39.411 192.221 38.8267 192.221 38.1125C192.221 37.3983 192.8 36.8464 193.509 36.8464C194.186 36.8464 194.765 37.3983 194.765 38.1125C194.765 38.8267 194.186 39.411 193.509 39.411Z" fill="white"/>
<path d="M207.748 13.3751C207.039 13.3751 206.491 12.7907 206.491 12.0765C206.491 11.3948 207.039 10.8104 207.748 10.8104C208.456 10.8104 209.004 11.3948 209.004 12.0765C209.004 12.7907 208.456 13.3751 207.748 13.3751ZM210.421 18.6342C209.713 18.6342 209.165 18.0499 209.165 17.3357C209.165 16.6539 209.713 16.0696 210.421 16.0696C211.13 16.0696 211.71 16.6539 211.71 17.3357C211.71 18.0499 211.13 18.6342 210.421 18.6342ZM181.203 71.258C180.14 71.258 179.238 70.349 179.238 69.2777C179.238 68.1739 180.14 67.2649 181.203 67.2649C182.299 67.2649 183.201 68.1739 183.201 69.2777C183.201 70.349 182.299 71.258 181.203 71.258ZM192.8 78.0754C191.705 78.0754 190.803 77.1988 190.803 76.0951C190.803 74.9913 191.705 74.0823 192.8 74.0823C193.896 74.0823 194.765 74.9913 194.765 76.0951C194.765 77.1988 193.896 78.0754 192.8 78.0754Z" fill="#C8D1E3"/>
<path d="M14.9795 80.3478C13.8842 80.3478 12.9822 79.4713 12.9822 78.3675C12.9822 77.2638 13.8842 76.3873 14.9795 76.3873C16.0748 76.3873 16.9446 77.2638 16.9446 78.3675C16.9446 79.4713 16.0748 80.3478 14.9795 80.3478Z" fill="#F98B67"/>
<path d="M179.818 169.299C175.663 167.416 169.961 163.552 169.961 162.546C169.961 161.864 174.02 161.67 175.115 161.67C176.887 161.67 178.369 162.221 179.85 162.903C180.269 163.098 181.88 164.234 181.88 164.234L183.555 166.247L185.101 168.162L185.778 169.039V169.331C185.778 169.331 181.654 169.331 179.818 169.299Z" fill="#69D2C9"/>
<path d="M184.94 169.331C179.142 164.819 167.319 140.341 170.347 131.283C176.79 134.595 183.877 146.022 187.227 155.664L187.356 156.118C187.399 156.291 187.431 156.454 187.453 156.605C187.496 156.757 187.539 156.919 187.582 157.092C187.603 157.244 187.625 157.406 187.646 157.579L188.999 163.812L189.353 169.331H184.94Z" fill="#1B75BC"/>
<path d="M188.87 169.331C186.937 167.708 186.293 163.001 186.293 161.215C186.261 157.936 186.744 155.501 189.547 151.865C192.349 148.23 191.609 142.224 195.313 138.166C199.05 134.108 201.498 132.972 205.911 132.972C210.325 132.972 211.71 140.179 211.678 141.997C211.646 149.301 207.071 150.34 204.269 153.813C202.271 156.345 202.11 158.423 201.498 159.592C198.212 165.987 195.539 168.39 193.541 169.331" fill="#73E5E2"/>
<path d="M189.966 168.779C190.03 156.313 203.044 137.581 205.847 134.79" stroke="white" stroke-width="0.4" stroke-linecap="round" stroke-linejoin="round"/>
<path d="M190.674 163.13C189.225 161.54 187.904 157.06 188.097 155.891M186.97 168.227C184.908 164.591 175.212 146.801 171.604 133.686" stroke="white" stroke-width="0.4" stroke-linecap="round" stroke-linejoin="round"/>
<path d="M193.574 169.331H199.63L194.572 188.387H180.978L175.985 169.331H193.574Z" fill="#D6D6D6"/>
<path d="M171.958 162.936C174.922 163.13 178.626 163.26 181.268 165.078" stroke="white" stroke-width="0.4" stroke-linecap="round" stroke-linejoin="round"/>
<path d="M232.52 94.4371C232.52 94.4371 227.688 149.301 228.075 150.242C228.461 151.184 248.724 174.882 248.724 174.882C248.724 174.882 246.662 178.323 245.245 179.362C244.021 178.973 216.381 157.677 214.674 147.483C212.966 137.322 218.153 94.7293 218.894 91.3206L232.52 94.4371Z" fill="#145C90"/>
<path d="M251.913 99.0469L231.232 184.102H224.241L231.296 95.3785L251.913 99.0469Z" fill="#207BBD"/>
<path d="M237.223 50.3513C240.058 50.3513 254.973 50.8383 257.647 56.1299C260.353 61.4215 257.808 85.8342 256.133 86.8081C255.231 87.2951 255.005 86.8081 254.748 87.847C254.458 88.8858 251.913 99.047 251.913 99.047C250.27 99.1119 226.593 95.5084 218.894 91.2881C218.926 90.1194 219.312 87.1003 219.312 86.8406C218.282 87.2626 217.057 87.36 216.703 86.8406C213.707 82.2632 218.185 58.3699 221.406 53.5652C222.759 51.52 232.617 50.3838 237.223 50.3513Z" fill="#69D2C9"/>
<path d="M255.005 86.938C255.005 86.938 253.652 92.1322 253.234 93.8203C253.749 91.7102 247.725 87.4574 247.016 87.4574C247.532 87.4574 254.426 87.0354 255.005 86.938Z" fill="#1F161E"/>
<path d="M240.896 53.1432C240.896 54.0846 233.648 54.0846 233.648 53.1432V43.7612H240.896V53.1432Z" fill="#F8CDBA"/>
<path d="M240.896 43.7612V48.4684C240.896 47.5919 237.32 45.9687 236.74 45.9687C236.74 45.9687 239.994 43.7612 240.896 43.7612Z" fill="#1F161E"/>
<path d="M235.741 46.6829C231.844 46.6829 228.687 43.5014 228.687 39.5409C228.687 35.6128 231.844 32.4313 235.741 32.4313C239.639 32.4313 242.796 35.6128 242.796 39.5409C242.796 43.5014 239.639 46.6829 235.741 46.6829Z" fill="#F8CDBA"/>
<path d="M239.833 31.6197C243.312 32.5936 243.892 34.2817 243.892 35.6452C243.892 37.0087 242.957 38.1449 241.991 39.0214C239.027 36.8788 235.387 36.9438 234.002 36.5867C232.585 36.2296 231.554 35.0933 230.942 34.6064C230.136 35.0933 229.202 36.1971 228.751 38.567C228.075 38.2099 227.463 36.8139 227.463 34.3791C227.463 31.4574 229.75 29.1525 233.358 29.1525C237.191 29.1525 237.513 30.9704 239.833 31.6197Z" fill="#1F161E"/>
<path d="M229.138 41.6835C228.461 41.6835 227.914 41.3913 227.914 41.0342C227.914 40.6771 228.461 40.3849 229.138 40.3849C229.846 40.3849 230.394 40.6771 230.394 41.0342C230.394 41.3913 229.846 41.6835 229.138 41.6835ZM236.933 41.6835C236.257 41.6835 235.677 41.3913 235.677 41.0342C235.677 40.6771 236.257 40.3849 236.933 40.3849C237.61 40.3849 238.158 40.6771 238.158 41.0342C238.158 41.3913 237.61 41.6835 236.933 41.6835Z" fill="#FA9E9F"/>
<path d="M232.166 39.6707C231.94 39.9954 230.748 41.3913 232.005 41.9757M234.485 43.5988C234.872 43.5988 235.452 43.1444 235.742 42.7223" stroke="#1F161E" stroke-linecap="round"/>
<path d="M242.281 42.0081C241.379 42.0081 240.638 41.2939 240.638 40.3849C240.638 39.4759 241.379 38.7293 242.281 38.7293C243.183 38.7293 243.892 39.4759 243.892 40.3849C243.892 41.2939 243.183 42.0081 242.281 42.0081Z" fill="#F8CDBA"/>
<path d="M247.178 64.3432C247.049 65.9339 246.565 73.6927 246.759 74.6991C244.375 75.5432 222.695 85.8991 218.958 87.0354M222.018 61.9084C221.503 63.6614 219.828 71.6475 221.02 75.3484" stroke="#1F161E" stroke-linecap="round"/>
<path d="M227.527 83.3994C228.654 84.211 239.478 89.0481 254.458 87.2301" stroke="#1F161E" stroke-linecap="round"/>
<path d="M222.147 79.4064C222.04 79.4929 221.911 79.5362 221.761 79.5362C221.61 79.5579 221.471 79.547 221.342 79.5038C221.213 79.4605 221.095 79.3847 220.988 79.2765C220.88 79.1899 220.805 79.0709 220.762 78.9194C220.375 78.1727 222.179 74.9913 223.532 74.2771C224.853 73.5629 227.237 75.4783 226.496 75.3484C225.24 75.1536 222.534 79.1791 222.147 79.4064Z" fill="#F8CDBA"/>
<path d="M248.498 175.239C248.885 175.532 252.3 177.869 252.332 179.33C252.364 180.823 249.143 185.693 248.498 185.823C247.854 185.985 247.371 185.433 247.371 184.427C247.371 183.453 248.595 181.732 248.434 180.953C248.273 180.174 246.694 178.778 245.889 178.746M230.555 184.102C230.555 184.784 230.942 189.037 230.169 189.426C229.395 189.816 220.794 190.075 220.408 189.653C220.021 189.264 219.763 188.452 220.118 188.225C220.472 187.965 223.79 187.316 224.241 186.991C224.692 186.667 225.304 185.011 225.079 184.102" fill="#1F161E"/>
<path d="M7.34479 152.547H61.9152V180.466H7.34479V152.547Z" fill="#D6D6D6"/>
<path d="M102.537 148.684C102.183 150.697 102.022 173.357 101.893 174.785C101.313 175.694 94.3868 174.493 93.7426 173.973C93.0661 173.421 89.0393 140.893 88.8138 139.497" fill="#65B7B0"/>
<path d="M74.7041 113.396C90.3601 113.396 111.235 148.035 111.235 148.944C111.235 149.853 108.625 152.158 107.305 153.489C105.597 153.489 83.7884 135.244 74.5753 135.244C70.3874 135.244 44.6163 158.78 29.2825 158.78C13.9808 158.78 8.15013 131.316 10.9527 132.712C17.2345 135.828 68.6479 113.396 74.7041 113.396Z" fill="#69D2C9"/>
<path d="M13.8842 146.379C10.4051 139.302 9.47092 131.965 10.9528 132.712C13.1111 133.783 20.6169 131.835 29.7979 128.816C26.4477 130.667 22.6142 132.452 19.5539 133.166C12.338 134.822 13.2399 145.016 13.8842 146.379Z" fill="#1F161E"/>
<path d="M26.3188 84.9901C28.7349 85.0551 41.2983 84.698 44.7452 87.9768C47.2901 90.4441 55.2147 111.513 56.4388 118.947C51.1235 121.674 12.6279 140.243 0.740948 132.063C0.483237 125.732 1.70737 100.508 9.47092 87.2951C12.338 85.3797 23.9994 84.9252 26.3188 84.9901Z" fill="#207BBD"/>
<path d="M31.2153 86.9055C31.2153 88.8858 23.8705 88.8858 23.8705 86.9055V78.9519H31.2153V86.9055Z" fill="#F8CDBA"/>
<path d="M23.8705 79.6985L24.3538 78.3351C24.3538 78.3351 27.8329 79.7635 27.8006 80.7374C26.2866 80.6725 23.8705 82.88 23.8705 83.7565V79.6985Z" fill="#1F161E"/>
<path d="M19.0706 78.9519C19.0277 78.7571 18.9955 78.5623 18.974 78.3675C18.931 78.1727 18.8988 77.978 18.8774 77.7832C18.8559 77.5884 18.8451 77.3936 18.8451 77.1988C18.8237 77.004 18.8129 76.8093 18.8129 76.6145C18.8129 70.7385 23.3551 65.9988 28.9925 65.9988C34.5978 65.9988 39.1399 70.7385 39.1399 76.6145V77.1988L39.0755 77.7832L39.0111 78.3675L38.8822 78.9519H19.0706Z" fill="#1F161E"/>
<path d="M36.3695 71.8099H36.7883C37.5292 73.8551 37.4004 76.0951 36.434 78.0429C35.4353 79.9907 33.6958 81.4191 31.6019 81.971C29.508 82.5554 27.2852 82.2307 25.449 81.062C23.645 79.8933 22.3565 78.0104 21.9699 75.8678L22.0343 75.9003C22.6786 75.673 24.0638 73.6603 24.4182 73.6603C24.7725 73.6603 27.9295 73.6278 32.8582 69.9919C33.728 70.6087 34.9843 71.6151 36.2085 71.8099H36.3695Z" fill="#F8CDBA"/>
<path d="M23.4839 67.3298C21.8088 67.3298 20.488 65.9664 20.488 64.3107C20.488 62.6226 21.8088 61.2916 23.4839 61.2916C25.1268 61.2916 26.4798 62.6226 26.4798 64.3107C26.4798 65.9664 25.1268 67.3298 23.4839 67.3298Z" fill="#1F161E"/>
<path d="M24.8047 76.0626C24.4826 76.0301 24.1926 75.9003 23.9671 75.6406C23.7416 75.4133 23.6128 75.1212 23.6128 74.7641C23.6128 74.4394 23.7416 74.1472 23.9671 73.8875C24.1926 73.6603 24.4826 73.5304 24.8047 73.498M34.4045 73.6603C34.791 74.1797 35.7252 75.0562 34.4045 75.9652M30.4099 76.647C30.4099 77.0041 30.571 77.8806 31.3763 78.1403" stroke="#1F161E" stroke-linecap="round"/>
<path d="M27.9617 76.7119C27.3174 76.7119 26.802 76.4522 26.802 76.1275C26.802 75.7704 27.3174 75.5107 27.9617 75.5107C28.606 75.5107 29.1214 75.7704 29.1214 76.1275C29.1214 76.4522 28.606 76.7119 27.9617 76.7119ZM36.595 76.7119C35.9508 76.7119 35.4353 76.4522 35.4353 76.1275C35.4353 75.7704 35.9508 75.5107 36.595 75.5107C37.2393 75.5107 37.7547 75.7704 37.7547 76.1275C37.7547 76.4522 37.2393 76.7119 36.595 76.7119Z" fill="#FA9E9F"/>
<path d="M44.4552 106.968L52.3154 104.923C53.0563 106.221 56.7287 118.915 56.7287 118.915L44.6163 124.077C44.7773 121.642 45.2605 110.637 44.4552 106.968Z" fill="#F8CDBA"/>
<path d="M16.9767 104.988C16.9767 105.929 16.1714 109.565 15.6882 111.286M44.4552 106.968C44.2619 105.475 43.1667 97.0018 41.2982 92.5218" stroke="#1F161E" stroke-linecap="round"/>
<path d="M44.4552 106.968L52.3154 104.923C53.0563 106.221 56.7287 118.915 56.7287 118.915L44.6163 124.077C44.7773 121.642 45.2605 110.637 44.4552 106.968Z" fill="#F8CDBA"/>
<path d="M110.655 149.366C110.848 149.918 112.04 151.119 112.588 151.379C113.135 151.638 116.292 151.151 116.518 151.898C116.711 152.645 111.718 156.053 110.88 156.021C110.043 155.988 107.723 153.099 107.53 152.807M99.831 173.941C99.5733 174.493 99.6055 176.213 99.831 176.765C100.024 177.317 102.634 179.167 102.279 179.882C101.925 180.563 95.9653 179.492 95.3855 178.908C94.8056 178.291 95.1277 174.59 95.1922 174.265" fill="#1F161E"/>
<path d="M85.8179 119.726H59.2414L65.5553 102.813H92.164L85.8179 119.726Z" fill="#969696"/>
<path d="M37.1104 119.077H63.6869V119.726H37.1104V119.077Z" fill="#969696"/>
<path d="M15.6882 111.286C15.1728 113.201 12.6923 121.447 13.7231 122.875C14.7218 124.304 40.0419 121.09 46.8068 118.947C48.5142 118.395 49.8027 116.902 50.5759 116.707C51.0591 116.61 51.5423 116.642 52.0255 116.74C52.5087 116.837 52.9919 116.999 53.4107 117.292C53.8295 117.551 54.1838 117.876 54.4738 118.266C54.7637 118.688 54.9892 119.142 55.118 119.597C52.4121 120.928 13.401 141.023 0.740914 132.063C-1.64292 130.342 2.54489 109.306 2.73818 108.234C4.8643 108.494 15.6882 111.286 15.6882 111.286Z" fill="#F8CDBA"/>
<path d="M44.8418 119.467C45.5827 119.272 46.2592 119.11 46.8068 118.947C48.5142 118.363 49.8027 116.87 50.5759 116.675C51.0591 116.61 51.5423 116.61 52.0577 116.707C52.5409 116.805 52.9919 116.999 53.4107 117.259C53.8295 117.519 54.1838 117.876 54.4738 118.266C54.7637 118.655 54.9892 119.11 55.118 119.597" stroke="#1F161E" stroke-linecap="round"/>
<g opacity="0.1">
<path d="M62.9138 196.698C61.9796 196.698 61.2065 195.919 61.2065 194.977C61.2065 194.036 61.9796 193.289 62.9138 193.289C63.848 193.289 64.5889 194.036 64.5889 194.977C64.5889 195.919 63.848 196.698 62.9138 196.698ZM62.9138 214.91C61.9796 214.91 61.2065 214.131 61.2065 213.19C61.2065 212.248 61.9796 211.469 62.9138 211.469C63.848 211.469 64.5889 212.248 64.5889 213.19C64.5889 214.131 63.848 214.91 62.9138 214.91ZM62.9138 205.788C61.9796 205.788 61.2065 205.041 61.2065 204.1C61.2065 203.158 61.9796 202.379 62.9138 202.379C63.848 202.379 64.5889 203.158 64.5889 204.1C64.5889 205.041 63.848 205.788 62.9138 205.788ZM62.9138 224C61.9796 224 61.2065 223.221 61.2065 222.279C61.2065 221.338 61.9796 220.591 62.9138 220.591C63.848 220.591 64.5889 221.338 64.5889 222.279C64.5889 223.221 63.848 224 62.9138 224ZM71.9337 196.698C70.9995 196.698 70.2264 195.919 70.2264 194.977C70.2264 194.036 70.9995 193.289 71.9337 193.289C72.8679 193.289 73.6411 194.036 73.6411 194.977C73.6411 195.919 72.8679 196.698 71.9337 196.698ZM71.9337 214.91C70.9995 214.91 70.2264 214.131 70.2264 213.19C70.2264 212.248 70.9995 211.469 71.9337 211.469C72.8679 211.469 73.6411 212.248 73.6411 213.19C73.6411 214.131 72.8679 214.91 71.9337 214.91ZM71.9337 205.788C70.9995 205.788 70.2264 205.041 70.2264 204.1C70.2264 203.158 70.9995 202.379 71.9337 202.379C72.8679 202.379 73.6411 203.158 73.6411 204.1C73.6411 205.041 72.8679 205.788 71.9337 205.788ZM71.9337 224C70.9995 224 70.2264 223.221 70.2264 222.279C70.2264 221.338 70.9995 220.591 71.9337 220.591C72.8679 220.591 73.6411 221.338 73.6411 222.279C73.6411 223.221 72.8679 224 71.9337 224ZM80.9536 196.698C80.0194 196.698 79.2785 195.919 79.2785 194.977C79.2785 194.036 80.0194 193.289 80.9536 193.289C81.8878 193.289 82.661 194.036 82.661 194.977C82.661 195.919 81.8878 196.698 80.9536 196.698ZM80.9536 214.91C80.0194 214.91 79.2785 214.131 79.2785 213.19C79.2785 212.248 80.0194 211.469 80.9536 211.469C81.8878 211.469 82.661 212.248 82.661 213.19C82.661 214.131 81.8878 214.91 80.9536 214.91ZM80.9536 205.788C80.0194 205.788 79.2785 205.041 79.2785 204.1C79.2785 203.158 80.0194 202.379 80.9536 202.379C81.8878 202.379 82.661 203.158 82.661 204.1C82.661 205.041 81.8878 205.788 80.9536 205.788ZM80.9536 224C80.0194 224 79.2785 223.221 79.2785 222.279C79.2785 221.338 80.0194 220.591 80.9536 220.591C81.8878 220.591 82.661 221.338 82.661 222.279C82.661 223.221 81.8878 224 80.9536 224ZM90.0057 196.698C89.0715 196.698 88.2984 195.919 88.2984 194.977C88.2984 194.036 89.0715 193.289 90.0057 193.289C90.9399 193.289 91.6809 194.036 91.6809 194.977C91.6809 195.919 90.9399 196.698 90.0057 196.698ZM90.0057 214.91C89.0715 214.91 88.2984 214.131 88.2984 213.19C88.2984 212.248 89.0715 211.469 90.0057 211.469C90.9399 211.469 91.6809 212.248 91.6809 213.19C91.6809 214.131 90.9399 214.91 90.0057 214.91ZM90.0057 205.788C89.0715 205.788 88.2984 205.041 88.2984 204.1C88.2984 203.158 89.0715 202.379 90.0057 202.379C90.9399 202.379 91.6809 203.158 91.6809 204.1C91.6809 205.041 90.9399 205.788 90.0057 205.788ZM90.0057 224C89.0715 224 88.2984 223.221 88.2984 222.279C88.2984 221.338 89.0715 220.591 90.0057 220.591C90.9399 220.591 91.6809 221.338 91.6809 222.279C91.6809 223.221 90.9399 224 90.0057 224ZM99.0256 196.698C98.0914 196.698 97.3505 195.919 97.3505 194.977C97.3505 194.036 98.0914 193.289 99.0256 193.289C99.9598 193.289 100.733 194.036 100.733 194.977C100.733 195.919 99.9598 196.698 99.0256 196.698ZM99.0256 214.91C98.0914 214.91 97.3505 214.131 97.3505 213.19C97.3505 212.248 98.0914 211.469 99.0256 211.469C99.9598 211.469 100.733 212.248 100.733 213.19C100.733 214.131 99.9598 214.91 99.0256 214.91ZM99.0256 205.788C98.0914 205.788 97.3505 205.041 97.3505 204.1C97.3505 203.158 98.0914 202.379 99.0256 202.379C99.9598 202.379 100.733 203.158 100.733 204.1C100.733 205.041 99.9598 205.788 99.0256 205.788ZM99.0256 224C98.0914 224 97.3505 223.221 97.3505 222.279C97.3505 221.338 98.0914 220.591 99.0256 220.591C99.9598 220.591 100.733 221.338 100.733 222.279C100.733 223.221 99.9598 224 99.0256 224ZM108.078 196.698C107.111 196.698 106.37 195.919 106.37 194.977C106.37 194.036 107.111 193.289 108.078 193.289C109.012 193.289 109.753 194.036 109.753 194.977C109.753 195.919 109.012 196.698 108.078 196.698ZM126.118 196.698C125.183 196.698 124.442 195.919 124.442 194.977C124.442 194.036 125.183 193.289 126.118 193.289C127.052 193.289 127.825 194.036 127.825 194.977C127.825 195.919 127.052 196.698 126.118 196.698ZM144.19 196.698C143.255 196.698 142.514 195.919 142.514 194.977C142.514 194.036 143.255 193.289 144.19 193.289C145.124 193.289 145.897 194.036 145.897 194.977C145.897 195.919 145.124 196.698 144.19 196.698ZM162.262 196.698C161.327 196.698 160.554 195.919 160.554 194.977C160.554 194.036 161.327 193.289 162.262 193.289C163.196 193.289 163.937 194.036 163.937 194.977C163.937 195.919 163.196 196.698 162.262 196.698ZM108.078 214.91C107.111 214.91 106.37 214.131 106.37 213.19C106.37 212.248 107.111 211.469 108.078 211.469C109.012 211.469 109.753 212.248 109.753 213.19C109.753 214.131 109.012 214.91 108.078 214.91ZM126.118 214.91C125.183 214.91 124.442 214.131 124.442 213.19C124.442 212.248 125.183 211.469 126.118 211.469C127.052 211.469 127.825 212.248 127.825 213.19C127.825 214.131 127.052 214.91 126.118 214.91ZM144.19 214.91C143.255 214.91 142.514 214.131 142.514 213.19C142.514 212.248 143.255 211.469 144.19 211.469C145.124 211.469 145.897 212.248 145.897 213.19C145.897 214.131 145.124 214.91 144.19 214.91ZM162.262 214.91C161.327 214.91 160.554 214.131 160.554 213.19C160.554 212.248 161.327 211.469 162.262 211.469C163.196 211.469 163.937 212.248 163.937 213.19C163.937 214.131 163.196 214.91 162.262 214.91ZM108.078 205.788C107.111 205.788 106.37 205.041 106.37 204.1C106.37 203.158 107.111 202.379 108.078 202.379C109.012 202.379 109.753 203.158 109.753 204.1C109.753 205.041 109.012 205.788 108.078 205.788ZM126.118 205.788C125.183 205.788 124.442 205.041 124.442 204.1C124.442 203.158 125.183 202.379 126.118 202.379C127.052 202.379 127.825 203.158 127.825 204.1C127.825 205.041 127.052 205.788 126.118 205.788ZM144.19 205.788C143.255 205.788 142.514 205.041 142.514 204.1C142.514 203.158 143.255 202.379 144.19 202.379C145.124 202.379 145.897 203.158 145.897 204.1C145.897 205.041 145.124 205.788 144.19 205.788ZM162.262 205.788C161.327 205.788 160.554 205.041 160.554 204.1C160.554 203.158 161.327 202.379 162.262 202.379C163.196 202.379 163.937 203.158 163.937 204.1C163.937 205.041 163.196 205.788 162.262 205.788ZM108.078 224C107.111 224 106.37 223.221 106.37 222.279C106.37 221.338 107.111 220.591 108.078 220.591C109.012 220.591 109.753 221.338 109.753 222.279C109.753 223.221 109.012 224 108.078 224ZM126.118 224C125.183 224 124.442 223.221 124.442 222.279C124.442 221.338 125.183 220.591 126.118 220.591C127.052 220.591 127.825 221.338 127.825 222.279C127.825 223.221 127.052 224 126.118 224ZM144.19 224C143.255 224 142.514 223.221 142.514 222.279C142.514 221.338 143.255 220.591 144.19 220.591C145.124 220.591 145.897 221.338 145.897 222.279C145.897 223.221 145.124 224 144.19 224ZM162.262 224C161.327 224 160.554 223.221 160.554 222.279C160.554 221.338 161.327 220.591 162.262 220.591C163.196 220.591 163.937 221.338 163.937 222.279C163.937 223.221 163.196 224 162.262 224ZM117.098 196.698C116.163 196.698 115.39 195.919 115.39 194.977C115.39 194.036 116.163 193.289 117.098 193.289C118.032 193.289 118.805 194.036 118.805 194.977C118.805 195.919 118.032 196.698 117.098 196.698ZM135.17 196.698C134.235 196.698 133.462 195.919 133.462 194.977C133.462 194.036 134.235 193.289 135.17 193.289C136.104 193.289 136.845 194.036 136.845 194.977C136.845 195.919 136.104 196.698 135.17 196.698ZM153.209 196.698C152.275 196.698 151.534 195.919 151.534 194.977C151.534 194.036 152.275 193.289 153.209 193.289C154.176 193.289 154.917 194.036 154.917 194.977C154.917 195.919 154.176 196.698 153.209 196.698ZM171.281 196.698C170.347 196.698 169.606 195.919 169.606 194.977C169.606 194.036 170.347 193.289 171.281 193.289C172.216 193.289 172.989 194.036 172.989 194.977C172.989 195.919 172.216 196.698 171.281 196.698ZM117.098 214.91C116.163 214.91 115.39 214.131 115.39 213.19C115.39 212.248 116.163 211.469 117.098 211.469C118.032 211.469 118.805 212.248 118.805 213.19C118.805 214.131 118.032 214.91 117.098 214.91ZM135.17 214.91C134.235 214.91 133.462 214.131 133.462 213.19C133.462 212.248 134.235 211.469 135.17 211.469C136.104 211.469 136.845 212.248 136.845 213.19C136.845 214.131 136.104 214.91 135.17 214.91ZM153.209 214.91C152.275 214.91 151.534 214.131 151.534 213.19C151.534 212.248 152.275 211.469 153.209 211.469C154.176 211.469 154.917 212.248 154.917 213.19C154.917 214.131 154.176 214.91 153.209 214.91ZM171.281 214.91C170.347 214.91 169.606 214.131 169.606 213.19C169.606 212.248 170.347 211.469 171.281 211.469C172.216 211.469 172.989 212.248 172.989 213.19C172.989 214.131 172.216 214.91 171.281 214.91ZM117.098 205.788C116.163 205.788 115.39 205.041 115.39 204.1C115.39 203.158 116.163 202.379 117.098 202.379C118.032 202.379 118.805 203.158 118.805 204.1C118.805 205.041 118.032 205.788 117.098 205.788ZM135.17 205.788C134.235 205.788 133.462 205.041 133.462 204.1C133.462 203.158 134.235 202.379 135.17 202.379C136.104 202.379 136.845 203.158 136.845 204.1C136.845 205.041 136.104 205.788 135.17 205.788ZM153.209 205.788C152.275 205.788 151.534 205.041 151.534 204.1C151.534 203.158 152.275 202.379 153.209 202.379C154.176 202.379 154.917 203.158 154.917 204.1C154.917 205.041 154.176 205.788 153.209 205.788ZM171.281 205.788C170.347 205.788 169.606 205.041 169.606 204.1C169.606 203.158 170.347 202.379 171.281 202.379C172.216 202.379 172.989 203.158 172.989 204.1C172.989 205.041 172.216 205.788 171.281 205.788ZM117.098 224C116.163 224 115.39 223.221 115.39 222.279C115.39 221.338 116.163 220.591 117.098 220.591C118.032 220.591 118.805 221.338 118.805 222.279C118.805 223.221 118.032 224 117.098 224ZM135.17 224C134.235 224 133.462 223.221 133.462 222.279C133.462 221.338 134.235 220.591 135.17 220.591C136.104 220.591 136.845 221.338 136.845 222.279C136.845 223.221 136.104 224 135.17 224ZM153.209 224C152.275 224 151.534 223.221 151.534 222.279C151.534 221.338 152.275 220.591 153.209 220.591C154.176 220.591 154.917 221.338 154.917 222.279C154.917 223.221 154.176 224 153.209 224ZM171.281 224C170.347 224 169.606 223.221 169.606 222.279C169.606 221.338 170.347 220.591 171.281 220.591C172.216 220.591 172.989 221.338 172.989 222.279C172.989 223.221 172.216 224 171.281 224Z" fill="#202A31"/>
</g>
</g>
<defs>
<clipPath id="clip0_115_3918">
<rect width="259" height="224" fill="white"/>
</clipPath>
</defs>
</svg>
