<svg width="25" height="24" viewBox="0 0 25 24" fill="none" xmlns="http://www.w3.org/2000/svg">
<path d="M22.4332 13.334C22.337 13.2376 22.2163 13.1692 22.0842 13.1362C21.9521 13.1032 21.8134 13.1067 21.6832 13.1465C20.2531 13.5789 18.7325 13.6151 17.2834 13.2514C15.8344 12.8877 14.5111 12.1377 13.4547 11.0813C12.3983 10.0249 11.6482 8.7016 11.2845 7.25254C10.9208 5.80347 10.9571 4.28288 11.3894 2.85279C11.4295 2.72248 11.4334 2.5837 11.4005 2.45137C11.3677 2.31903 11.2994 2.19816 11.203 2.10175C11.1065 2.00534 10.9857 1.93703 10.8533 1.90418C10.721 1.87132 10.5822 1.87517 10.4519 1.91529C8.47475 2.52096 6.73898 3.73478 5.4916 5.38404C4.40074 6.83234 3.73534 8.55614 3.57016 10.3618C3.40499 12.1674 3.74657 13.9833 4.55655 15.6055C5.36652 17.2277 6.6128 18.5919 8.15535 19.5448C9.69791 20.4978 11.4756 21.0017 13.2888 21C15.4041 21.0065 17.4632 20.3188 19.15 19.0425C20.7993 17.7951 22.0131 16.0593 22.6188 14.0822C22.6585 13.9523 22.6621 13.8142 22.6294 13.6824C22.5968 13.5507 22.5289 13.4303 22.4332 13.334ZM18.2482 17.8444C16.6596 19.0408 14.6923 19.6232 12.7084 19.4843C10.7245 19.3454 8.85761 18.4945 7.4513 17.0884C6.04499 15.6822 5.19396 13.8153 5.05489 11.8314C4.91581 9.84753 5.49805 7.88019 6.69442 6.29154C7.47386 5.26222 8.48154 4.42784 9.63817 3.85404C9.57228 4.31644 9.53907 4.78291 9.53879 5.24998C9.54152 7.835 10.5696 10.3134 12.3975 12.1413C14.2254 13.9691 16.7038 14.9972 19.2888 15C19.7568 14.9998 20.2242 14.9666 20.6875 14.9006C20.1132 16.0574 19.2782 17.0651 18.2482 17.8444Z" fill="#82829A"/>
</svg>
