<svg width="25" height="24" viewBox="0 0 25 24" fill="none" xmlns="http://www.w3.org/2000/svg">
<path d="M22.6207 14.0822C22.0151 16.0593 20.8012 17.7951 19.152 19.0425C17.704 20.1323 15.9809 20.797 14.1761 20.9619C12.3714 21.1268 10.5564 20.7855 8.93482 19.9762C7.31328 19.1668 5.94939 17.9216 4.99625 16.3802C4.0431 14.8388 3.53843 13.0623 3.53886 11.25C3.53235 9.13467 4.22001 7.07562 5.49636 5.38874C6.74374 3.73948 8.47952 2.52566 10.4567 1.91999C10.587 1.87987 10.7258 1.87602 10.8581 1.90888C10.9904 1.94173 11.1113 2.01004 11.2077 2.10645C11.3041 2.20286 11.3724 2.32373 11.4053 2.45607C11.4381 2.5884 11.4343 2.72718 11.3942 2.85749C10.9618 4.28758 10.9256 5.80817 11.2893 7.25724C11.653 8.7063 12.403 10.0296 13.4594 11.086C14.5159 12.1424 15.8391 12.8924 17.2882 13.2561C18.7372 13.6198 20.2578 13.5836 21.6879 13.1512C21.8182 13.1111 21.957 13.1073 22.0894 13.1401C22.2217 13.173 22.3426 13.2413 22.439 13.3377C22.5354 13.4341 22.6037 13.555 22.6365 13.6873C22.6694 13.8196 22.6656 13.9584 22.6254 14.0887L22.6207 14.0822Z" fill="#F5F5F5"/>
</svg>
