<svg width="18" height="16" viewBox="0 0 18 16" fill="none" xmlns="http://www.w3.org/2000/svg">
<path d="M8.99996 12.5833C10.0416 12.5833 10.927 12.2187 11.6562 11.4896C12.3854 10.7604 12.75 9.875 12.75 8.83333C12.75 7.79167 12.3854 6.90625 11.6562 6.17708C10.927 5.44792 10.0416 5.08333 8.99996 5.08333C7.95829 5.08333 7.07288 5.44792 6.34371 6.17708C5.61454 6.90625 5.24996 7.79167 5.24996 8.83333C5.24996 9.875 5.61454 10.7604 6.34371 11.4896C7.07288 12.2187 7.95829 12.5833 8.99996 12.5833ZM8.99996 10.9167C8.41663 10.9167 7.92357 10.7153 7.52079 10.3125C7.11802 9.90972 6.91663 9.41667 6.91663 8.83333C6.91663 8.25 7.11802 7.75694 7.52079 7.35417C7.92357 6.95139 8.41663 6.75 8.99996 6.75C9.58329 6.75 10.0763 6.95139 10.4791 7.35417C10.8819 7.75694 11.0833 8.25 11.0833 8.83333C11.0833 9.41667 10.8819 9.90972 10.4791 10.3125C10.0763 10.7153 9.58329 10.9167 8.99996 10.9167ZM2.33329 15.5C1.87496 15.5 1.4826 15.3368 1.15621 15.0104C0.82982 14.684 0.666626 14.2917 0.666626 13.8333V3.83333C0.666626 3.375 0.82982 2.98264 1.15621 2.65625C1.4826 2.32986 1.87496 2.16667 2.33329 2.16667H4.95829L6.49996 0.5H11.5L13.0416 2.16667H15.6666C16.125 2.16667 16.5173 2.32986 16.8437 2.65625C17.1701 2.98264 17.3333 3.375 17.3333 3.83333V13.8333C17.3333 14.2917 17.1701 14.684 16.8437 15.0104C16.5173 15.3368 16.125 15.5 15.6666 15.5H2.33329ZM15.6666 13.8333V3.83333H12.2916L10.7708 2.16667H7.22913L5.70829 3.83333H2.33329V13.8333H15.6666Z" fill="#212121"/>
</svg>
