<svg width="48" height="48" viewBox="0 0 48 48" fill="none" xmlns="http://www.w3.org/2000/svg">
<circle cx="24" cy="24" r="24" transform="rotate(-90 24 24)" fill="#F0F5FF"/>
<circle cx="24" cy="24" r="20" fill="#F0F5FF"/>
<mask id="path-3-inside-1_124_4322" fill="white">
<path d="M24 0C29.0683 0 34.0065 1.60452 38.1068 4.58359C42.2072 7.56266 45.2592 11.7634 46.8254 16.5836C48.3915 21.4038 48.3915 26.5962 46.8254 31.4164C45.2592 36.2367 42.2072 40.4373 38.1068 43.4164L24 24V0Z"/>
</mask>
<path d="M24 0C29.0683 0 34.0065 1.60452 38.1068 4.58359C42.2072 7.56266 45.2592 11.7634 46.8254 16.5836C48.3915 21.4038 48.3915 26.5962 46.8254 31.4164C45.2592 36.2367 42.2072 40.4373 38.1068 43.4164L24 24V0Z" stroke="url(#paint0_linear_124_4322)" stroke-width="10" mask="url(#path-3-inside-1_124_4322)"/>
<circle cx="24" cy="24" r="20" fill="white"/>
<path d="M16.812 28C16.732 28 16.664 27.976 16.608 27.928C16.56 27.872 16.536 27.804 16.536 27.724V25.996H12.648C12.568 25.996 12.5 25.972 12.444 25.924C12.396 25.868 12.372 25.8 12.372 25.72V25.24C12.372 25.12 12.416 25 12.504 24.88L16.104 19.804C16.144 19.74 16.204 19.692 16.284 19.66C16.364 19.62 16.452 19.6 16.548 19.6H17.412C17.492 19.6 17.556 19.628 17.604 19.684C17.66 19.732 17.688 19.796 17.688 19.876V24.952H18.768C18.848 24.952 18.916 24.98 18.972 25.036C19.028 25.084 19.056 25.148 19.056 25.228V25.72C19.056 25.8 19.028 25.868 18.972 25.924C18.924 25.972 18.86 25.996 18.78 25.996H17.688V27.724C17.688 27.804 17.66 27.872 17.604 27.928C17.556 27.976 17.492 28 17.412 28H16.812ZM16.548 24.976V20.86L13.656 24.976H16.548ZM23.2571 28.12C22.2251 28.12 21.4691 27.82 20.9891 27.22C20.5091 26.62 20.2531 25.832 20.2211 24.856C20.2131 24.64 20.2091 24.292 20.2091 23.812C20.2091 23.316 20.2131 22.956 20.2211 22.732C20.2451 21.772 20.5011 20.992 20.9891 20.392C21.4771 19.784 22.2331 19.48 23.2571 19.48C24.2891 19.48 25.0491 19.784 25.5371 20.392C26.0251 20.992 26.2811 21.772 26.3051 22.732C26.3211 23.18 26.3291 23.54 26.3291 23.812C26.3291 24.076 26.3211 24.424 26.3051 24.856C26.2731 25.832 26.0171 26.62 25.5371 27.22C25.0571 27.82 24.2971 28.12 23.2571 28.12ZM23.2571 27.088C23.8571 27.088 24.3091 26.888 24.6131 26.488C24.9251 26.088 25.0891 25.524 25.1051 24.796C25.1211 24.332 25.1291 23.996 25.1291 23.788C25.1291 23.564 25.1211 23.236 25.1051 22.804C25.0891 22.084 24.9291 21.52 24.6251 21.112C24.3211 20.704 23.8651 20.5 23.2571 20.5C22.6571 20.5 22.2011 20.704 21.8891 21.112C21.5851 21.52 21.4251 22.084 21.4091 22.804L21.3971 23.788L21.4091 24.796C21.4251 25.524 21.5851 26.088 21.8891 26.488C22.2011 26.888 22.6571 27.088 23.2571 27.088ZM29.3863 23.812C28.8663 23.812 28.4543 23.676 28.1503 23.404C27.8543 23.124 27.6903 22.74 27.6583 22.252C27.6503 22.116 27.6463 21.94 27.6463 21.724C27.6463 21.492 27.6503 21.304 27.6583 21.16C27.6823 20.664 27.8383 20.272 28.1263 19.984C28.4223 19.688 28.8423 19.54 29.3863 19.54C29.9303 19.54 30.3463 19.688 30.6343 19.984C30.9303 20.272 31.0903 20.664 31.1143 21.16C31.1303 21.48 31.1383 21.684 31.1383 21.772C31.1383 21.852 31.1303 22.012 31.1143 22.252C31.0903 22.74 30.9263 23.124 30.6223 23.404C30.3183 23.676 29.9063 23.812 29.3863 23.812ZM28.3783 28C28.3063 28 28.2463 27.98 28.1983 27.94C28.1503 27.892 28.1263 27.832 28.1263 27.76C28.1263 27.712 28.1423 27.668 28.1743 27.628L34.1023 19.828C34.1663 19.74 34.2223 19.68 34.2703 19.648C34.3263 19.616 34.4023 19.6 34.4983 19.6H34.8943C34.9743 19.6 35.0343 19.624 35.0743 19.672C35.1223 19.712 35.1463 19.768 35.1463 19.84C35.1463 19.888 35.1303 19.932 35.0983 19.972L29.1823 27.772C29.1183 27.86 29.0583 27.92 29.0023 27.952C28.9543 27.984 28.8783 28 28.7743 28H28.3783ZM29.3863 23.068C29.6743 23.068 29.8823 22.984 30.0103 22.816C30.1463 22.648 30.2263 22.444 30.2503 22.204C30.2663 21.916 30.2743 21.748 30.2743 21.7C30.2743 21.628 30.2663 21.464 30.2503 21.208C30.2343 20.96 30.1543 20.752 30.0103 20.584C29.8743 20.416 29.6663 20.332 29.3863 20.332C29.1063 20.332 28.8983 20.416 28.7623 20.584C28.6263 20.752 28.5503 20.96 28.5343 21.208C28.5263 21.336 28.5223 21.5 28.5223 21.7C28.5223 21.892 28.5263 22.06 28.5343 22.204C28.5583 22.452 28.6343 22.66 28.7623 22.828C28.8983 22.988 29.1063 23.068 29.3863 23.068ZM33.8743 28.072C33.3543 28.072 32.9423 27.928 32.6383 27.64C32.3423 27.344 32.1783 26.952 32.1463 26.464C32.1383 26.328 32.1343 26.152 32.1343 25.936C32.1343 25.704 32.1383 25.516 32.1463 25.372C32.1783 24.876 32.3383 24.484 32.6263 24.196C32.9223 23.9 33.3383 23.752 33.8743 23.752C34.4183 23.752 34.8343 23.9 35.1223 24.196C35.4183 24.484 35.5823 24.876 35.6143 25.372C35.6303 25.66 35.6383 25.848 35.6383 25.936C35.6383 26.016 35.6303 26.192 35.6143 26.464C35.5823 26.952 35.4143 27.344 35.1103 27.64C34.8063 27.928 34.3943 28.072 33.8743 28.072ZM33.8743 27.28C34.1623 27.28 34.3703 27.196 34.4983 27.028C34.6343 26.86 34.7143 26.656 34.7383 26.416C34.7543 26.128 34.7623 25.96 34.7623 25.912C34.7623 25.84 34.7543 25.676 34.7383 25.42C34.7223 25.172 34.6463 24.964 34.5103 24.796C34.3743 24.628 34.1623 24.544 33.8743 24.544C33.5943 24.544 33.3863 24.628 33.2503 24.796C33.1143 24.964 33.0383 25.172 33.0223 25.42C33.0143 25.548 33.0103 25.712 33.0103 25.912C33.0103 26.104 33.0143 26.272 33.0223 26.416C33.0463 26.656 33.1223 26.86 33.2503 27.028C33.3863 27.196 33.5943 27.28 33.8743 27.28Z" fill="url(#paint1_linear_124_4322)"/>
<defs>
<linearGradient id="paint0_linear_124_4322" x1="0" y1="24" x2="48" y2="24" gradientUnits="userSpaceOnUse">
<stop stop-color="#F53C3C"/>
<stop offset="1" stop-color="#F5AB3C"/>
</linearGradient>
<linearGradient id="paint1_linear_124_4322" x1="24.5" y1="15" x2="24.5" y2="33" gradientUnits="userSpaceOnUse">
<stop stop-color="#F53C3C"/>
<stop offset="1" stop-color="#F5AB3C"/>
</linearGradient>
</defs>
</svg>
