<svg width="48" height="48" viewBox="0 0 48 48" fill="none" xmlns="http://www.w3.org/2000/svg">
<circle cx="24" cy="24" r="24" transform="rotate(-90 24 24)" fill="#F0F5FF"/>
<circle cx="24" cy="24" r="20" fill="#F0F5FF"/>
<mask id="path-3-inside-1_124_4334" fill="white">
<path d="M24 0C27.7874 0 31.5211 0.896378 34.8958 2.61584C38.2704 4.33531 41.1902 6.82904 43.4164 9.89315C45.6426 12.9573 47.112 16.5048 47.7045 20.2456C48.297 23.9864 47.9957 27.8143 46.8254 31.4164L24 24V0Z"/>
</mask>
<path d="M24 0C27.7874 0 31.5211 0.896378 34.8958 2.61584C38.2704 4.33531 41.1902 6.82904 43.4164 9.89315C45.6426 12.9573 47.112 16.5048 47.7045 20.2456C48.297 23.9864 47.9957 27.8143 46.8254 31.4164L24 24V0Z" stroke="url(#paint0_linear_124_4334)" stroke-width="10" mask="url(#path-3-inside-1_124_4334)"/>
<circle cx="24" cy="24" r="20" fill="white"/>
<path d="M15.576 28.12C14.944 28.12 14.396 28.02 13.932 27.82C13.476 27.612 13.128 27.344 12.888 27.016C12.656 26.688 12.532 26.344 12.516 25.984C12.516 25.912 12.54 25.856 12.588 25.816C12.636 25.768 12.696 25.744 12.768 25.744H13.356C13.524 25.744 13.636 25.832 13.692 26.008C13.796 26.408 14.02 26.692 14.364 26.86C14.708 27.02 15.112 27.1 15.576 27.1C16.144 27.1 16.596 26.968 16.932 26.704C17.268 26.432 17.436 26.044 17.436 25.54C17.436 24.572 16.848 24.088 15.672 24.088H14.532C14.452 24.088 14.384 24.064 14.328 24.016C14.28 23.96 14.256 23.892 14.256 23.812V23.488C14.256 23.376 14.3 23.268 14.388 23.164L16.716 20.62H13.176C13.096 20.62 13.028 20.596 12.972 20.548C12.924 20.492 12.9 20.424 12.9 20.344V19.888C12.9 19.808 12.924 19.74 12.972 19.684C13.028 19.628 13.096 19.6 13.176 19.6H17.964C18.052 19.6 18.12 19.628 18.168 19.684C18.224 19.732 18.252 19.8 18.252 19.888V20.32C18.252 20.416 18.208 20.508 18.12 20.596L15.804 23.176L15.996 23.188C16.812 23.212 17.456 23.424 17.928 23.824C18.4 24.224 18.636 24.808 18.636 25.576C18.636 26.096 18.504 26.548 18.24 26.932C17.976 27.316 17.612 27.612 17.148 27.82C16.684 28.02 16.16 28.12 15.576 28.12ZM23.011 28.12C21.979 28.12 21.223 27.82 20.743 27.22C20.263 26.62 20.007 25.832 19.975 24.856C19.967 24.64 19.963 24.292 19.963 23.812C19.963 23.316 19.967 22.956 19.975 22.732C19.999 21.772 20.255 20.992 20.743 20.392C21.231 19.784 21.987 19.48 23.011 19.48C24.043 19.48 24.803 19.784 25.291 20.392C25.779 20.992 26.035 21.772 26.059 22.732C26.075 23.18 26.083 23.54 26.083 23.812C26.083 24.076 26.075 24.424 26.059 24.856C26.027 25.832 25.771 26.62 25.291 27.22C24.811 27.82 24.051 28.12 23.011 28.12ZM23.011 27.088C23.611 27.088 24.063 26.888 24.367 26.488C24.679 26.088 24.843 25.524 24.859 24.796C24.875 24.332 24.883 23.996 24.883 23.788C24.883 23.564 24.875 23.236 24.859 22.804C24.843 22.084 24.683 21.52 24.379 21.112C24.075 20.704 23.619 20.5 23.011 20.5C22.411 20.5 21.955 20.704 21.643 21.112C21.339 21.52 21.179 22.084 21.163 22.804L21.151 23.788L21.163 24.796C21.179 25.524 21.339 26.088 21.643 26.488C21.955 26.888 22.411 27.088 23.011 27.088ZM29.1402 23.812C28.6202 23.812 28.2082 23.676 27.9042 23.404C27.6082 23.124 27.4442 22.74 27.4122 22.252C27.4042 22.116 27.4002 21.94 27.4002 21.724C27.4002 21.492 27.4042 21.304 27.4122 21.16C27.4362 20.664 27.5922 20.272 27.8802 19.984C28.1762 19.688 28.5962 19.54 29.1402 19.54C29.6842 19.54 30.1002 19.688 30.3882 19.984C30.6842 20.272 30.8442 20.664 30.8682 21.16C30.8842 21.48 30.8922 21.684 30.8922 21.772C30.8922 21.852 30.8842 22.012 30.8682 22.252C30.8442 22.74 30.6802 23.124 30.3762 23.404C30.0722 23.676 29.6602 23.812 29.1402 23.812ZM28.1322 28C28.0602 28 28.0002 27.98 27.9522 27.94C27.9042 27.892 27.8802 27.832 27.8802 27.76C27.8802 27.712 27.8962 27.668 27.9282 27.628L33.8562 19.828C33.9202 19.74 33.9762 19.68 34.0242 19.648C34.0802 19.616 34.1562 19.6 34.2522 19.6H34.6482C34.7282 19.6 34.7882 19.624 34.8282 19.672C34.8762 19.712 34.9002 19.768 34.9002 19.84C34.9002 19.888 34.8842 19.932 34.8522 19.972L28.9362 27.772C28.8722 27.86 28.8122 27.92 28.7562 27.952C28.7082 27.984 28.6322 28 28.5282 28H28.1322ZM29.1402 23.068C29.4282 23.068 29.6362 22.984 29.7642 22.816C29.9002 22.648 29.9802 22.444 30.0042 22.204C30.0202 21.916 30.0282 21.748 30.0282 21.7C30.0282 21.628 30.0202 21.464 30.0042 21.208C29.9882 20.96 29.9082 20.752 29.7642 20.584C29.6282 20.416 29.4202 20.332 29.1402 20.332C28.8602 20.332 28.6522 20.416 28.5162 20.584C28.3802 20.752 28.3042 20.96 28.2882 21.208C28.2802 21.336 28.2762 21.5 28.2762 21.7C28.2762 21.892 28.2802 22.06 28.2882 22.204C28.3122 22.452 28.3882 22.66 28.5162 22.828C28.6522 22.988 28.8602 23.068 29.1402 23.068ZM33.6282 28.072C33.1082 28.072 32.6962 27.928 32.3922 27.64C32.0962 27.344 31.9322 26.952 31.9002 26.464C31.8922 26.328 31.8882 26.152 31.8882 25.936C31.8882 25.704 31.8922 25.516 31.9002 25.372C31.9322 24.876 32.0922 24.484 32.3802 24.196C32.6762 23.9 33.0922 23.752 33.6282 23.752C34.1722 23.752 34.5882 23.9 34.8762 24.196C35.1722 24.484 35.3362 24.876 35.3682 25.372C35.3842 25.66 35.3922 25.848 35.3922 25.936C35.3922 26.016 35.3842 26.192 35.3682 26.464C35.3362 26.952 35.1682 27.344 34.8642 27.64C34.5602 27.928 34.1482 28.072 33.6282 28.072ZM33.6282 27.28C33.9162 27.28 34.1242 27.196 34.2522 27.028C34.3882 26.86 34.4682 26.656 34.4922 26.416C34.5082 26.128 34.5162 25.96 34.5162 25.912C34.5162 25.84 34.5082 25.676 34.4922 25.42C34.4762 25.172 34.4002 24.964 34.2642 24.796C34.1282 24.628 33.9162 24.544 33.6282 24.544C33.3482 24.544 33.1402 24.628 33.0042 24.796C32.8682 24.964 32.7922 25.172 32.7762 25.42C32.7682 25.548 32.7642 25.712 32.7642 25.912C32.7642 26.104 32.7682 26.272 32.7762 26.416C32.8002 26.656 32.8762 26.86 33.0042 27.028C33.1402 27.196 33.3482 27.28 33.6282 27.28Z" fill="url(#paint1_linear_124_4334)"/>
<defs>
<linearGradient id="paint0_linear_124_4334" x1="0" y1="24" x2="48" y2="24" gradientUnits="userSpaceOnUse">
<stop stop-color="#F53C3C"/>
<stop offset="1" stop-color="#F5AB3C"/>
</linearGradient>
<linearGradient id="paint1_linear_124_4334" x1="24" y1="15" x2="24" y2="33" gradientUnits="userSpaceOnUse">
<stop stop-color="#F53C3C"/>
<stop offset="1" stop-color="#F5AB3C"/>
</linearGradient>
</defs>
</svg>
