<svg width="48" height="48" viewBox="0 0 48 48" fill="none" xmlns="http://www.w3.org/2000/svg">
<circle cx="24" cy="24" r="24" transform="rotate(-90 24 24)" fill="#F0F5FF"/>
<circle cx="24" cy="24" r="20" fill="#F0F5FF"/>
<mask id="path-3-inside-1_124_4346" fill="white">
<path d="M24 0C29.0683 0 34.0065 1.60452 38.1068 4.58359L24 24V0Z"/>
</mask>
<path d="M24 0C29.0683 0 34.0065 1.60452 38.1068 4.58359L24 24V0Z" stroke="url(#paint0_linear_124_4346)" stroke-width="10" mask="url(#path-3-inside-1_124_4346)"/>
<circle cx="24" cy="24" r="20" fill="white"/>
<path d="M15.312 28C15.232 28 15.164 27.976 15.108 27.928C15.06 27.872 15.036 27.804 15.036 27.724V21.004L13.044 22.54C12.988 22.588 12.928 22.612 12.864 22.612C12.792 22.612 12.724 22.572 12.66 22.492L12.348 22.096C12.308 22.04 12.288 21.984 12.288 21.928C12.288 21.832 12.328 21.756 12.408 21.7L15.024 19.684C15.112 19.628 15.216 19.6 15.336 19.6H15.948C16.028 19.6 16.092 19.628 16.14 19.684C16.196 19.732 16.224 19.796 16.224 19.876V27.724C16.224 27.804 16.196 27.872 16.14 27.928C16.092 27.976 16.028 28 15.948 28H15.312ZM20.9368 28.12C19.9048 28.12 19.1488 27.82 18.6688 27.22C18.1888 26.62 17.9328 25.832 17.9008 24.856C17.8928 24.64 17.8888 24.292 17.8888 23.812C17.8888 23.316 17.8928 22.956 17.9008 22.732C17.9248 21.772 18.1808 20.992 18.6688 20.392C19.1568 19.784 19.9128 19.48 20.9368 19.48C21.9688 19.48 22.7288 19.784 23.2168 20.392C23.7048 20.992 23.9608 21.772 23.9848 22.732C24.0008 23.18 24.0088 23.54 24.0088 23.812C24.0088 24.076 24.0008 24.424 23.9848 24.856C23.9528 25.832 23.6968 26.62 23.2168 27.22C22.7368 27.82 21.9768 28.12 20.9368 28.12ZM20.9368 27.088C21.5368 27.088 21.9888 26.888 22.2928 26.488C22.6048 26.088 22.7688 25.524 22.7848 24.796C22.8008 24.332 22.8088 23.996 22.8088 23.788C22.8088 23.564 22.8008 23.236 22.7848 22.804C22.7688 22.084 22.6088 21.52 22.3048 21.112C22.0008 20.704 21.5448 20.5 20.9368 20.5C20.3368 20.5 19.8808 20.704 19.5688 21.112C19.2648 21.52 19.1048 22.084 19.0888 22.804L19.0768 23.788L19.0888 24.796C19.1048 25.524 19.2648 26.088 19.5688 26.488C19.8808 26.888 20.3368 27.088 20.9368 27.088ZM27.066 23.812C26.546 23.812 26.134 23.676 25.83 23.404C25.534 23.124 25.37 22.74 25.338 22.252C25.33 22.116 25.326 21.94 25.326 21.724C25.326 21.492 25.33 21.304 25.338 21.16C25.362 20.664 25.518 20.272 25.806 19.984C26.102 19.688 26.522 19.54 27.066 19.54C27.61 19.54 28.026 19.688 28.314 19.984C28.61 20.272 28.77 20.664 28.794 21.16C28.81 21.48 28.818 21.684 28.818 21.772C28.818 21.852 28.81 22.012 28.794 22.252C28.77 22.74 28.606 23.124 28.302 23.404C27.998 23.676 27.586 23.812 27.066 23.812ZM26.058 28C25.986 28 25.926 27.98 25.878 27.94C25.83 27.892 25.806 27.832 25.806 27.76C25.806 27.712 25.822 27.668 25.854 27.628L31.782 19.828C31.846 19.74 31.902 19.68 31.95 19.648C32.006 19.616 32.082 19.6 32.178 19.6H32.574C32.654 19.6 32.714 19.624 32.754 19.672C32.802 19.712 32.826 19.768 32.826 19.84C32.826 19.888 32.81 19.932 32.778 19.972L26.862 27.772C26.798 27.86 26.738 27.92 26.682 27.952C26.634 27.984 26.558 28 26.454 28H26.058ZM27.066 23.068C27.354 23.068 27.562 22.984 27.69 22.816C27.826 22.648 27.906 22.444 27.93 22.204C27.946 21.916 27.954 21.748 27.954 21.7C27.954 21.628 27.946 21.464 27.93 21.208C27.914 20.96 27.834 20.752 27.69 20.584C27.554 20.416 27.346 20.332 27.066 20.332C26.786 20.332 26.578 20.416 26.442 20.584C26.306 20.752 26.23 20.96 26.214 21.208C26.206 21.336 26.202 21.5 26.202 21.7C26.202 21.892 26.206 22.06 26.214 22.204C26.238 22.452 26.314 22.66 26.442 22.828C26.578 22.988 26.786 23.068 27.066 23.068ZM31.554 28.072C31.034 28.072 30.622 27.928 30.318 27.64C30.022 27.344 29.858 26.952 29.826 26.464C29.818 26.328 29.814 26.152 29.814 25.936C29.814 25.704 29.818 25.516 29.826 25.372C29.858 24.876 30.018 24.484 30.306 24.196C30.602 23.9 31.018 23.752 31.554 23.752C32.098 23.752 32.514 23.9 32.802 24.196C33.098 24.484 33.262 24.876 33.294 25.372C33.31 25.66 33.318 25.848 33.318 25.936C33.318 26.016 33.31 26.192 33.294 26.464C33.262 26.952 33.094 27.344 32.79 27.64C32.486 27.928 32.074 28.072 31.554 28.072ZM31.554 27.28C31.842 27.28 32.05 27.196 32.178 27.028C32.314 26.86 32.394 26.656 32.418 26.416C32.434 26.128 32.442 25.96 32.442 25.912C32.442 25.84 32.434 25.676 32.418 25.42C32.402 25.172 32.326 24.964 32.19 24.796C32.054 24.628 31.842 24.544 31.554 24.544C31.274 24.544 31.066 24.628 30.93 24.796C30.794 24.964 30.718 25.172 30.702 25.42C30.694 25.548 30.69 25.712 30.69 25.912C30.69 26.104 30.694 26.272 30.702 26.416C30.726 26.656 30.802 26.86 30.93 27.028C31.066 27.196 31.274 27.28 31.554 27.28Z" fill="url(#paint1_linear_124_4346)"/>
<defs>
<linearGradient id="paint0_linear_124_4346" x1="0" y1="24" x2="48" y2="24" gradientUnits="userSpaceOnUse">
<stop stop-color="#F53C3C"/>
<stop offset="1" stop-color="#F5AB3C"/>
</linearGradient>
<linearGradient id="paint1_linear_124_4346" x1="23" y1="15" x2="23" y2="33" gradientUnits="userSpaceOnUse">
<stop stop-color="#F53C3C"/>
<stop offset="1" stop-color="#F5AB3C"/>
</linearGradient>
</defs>
</svg>
