<svg width="48" height="48" viewBox="0 0 48 48" fill="none" xmlns="http://www.w3.org/2000/svg">
<path d="M19.804 28.12C18.772 28.12 18.016 27.82 17.536 27.22C17.056 26.62 16.8 25.832 16.768 24.856C16.76 24.64 16.756 24.292 16.756 23.812C16.756 23.316 16.76 22.956 16.768 22.732C16.792 21.772 17.048 20.992 17.536 20.392C18.024 19.784 18.78 19.48 19.804 19.48C20.836 19.48 21.596 19.784 22.084 20.392C22.572 20.992 22.828 21.772 22.852 22.732C22.868 23.18 22.876 23.54 22.876 23.812C22.876 24.076 22.868 24.424 22.852 24.856C22.82 25.832 22.564 26.62 22.084 27.22C21.604 27.82 20.844 28.12 19.804 28.12ZM19.804 27.088C20.404 27.088 20.856 26.888 21.16 26.488C21.472 26.088 21.636 25.524 21.652 24.796C21.668 24.332 21.676 23.996 21.676 23.788C21.676 23.564 21.668 23.236 21.652 22.804C21.636 22.084 21.476 21.52 21.172 21.112C20.868 20.704 20.412 20.5 19.804 20.5C19.204 20.5 18.748 20.704 18.436 21.112C18.132 21.52 17.972 22.084 17.956 22.804L17.944 23.788L17.956 24.796C17.972 25.524 18.132 26.088 18.436 26.488C18.748 26.888 19.204 27.088 19.804 27.088ZM25.9332 23.812C25.4132 23.812 25.0012 23.676 24.6972 23.404C24.4012 23.124 24.2372 22.74 24.2052 22.252C24.1972 22.116 24.1932 21.94 24.1932 21.724C24.1932 21.492 24.1972 21.304 24.2052 21.16C24.2292 20.664 24.3852 20.272 24.6732 19.984C24.9692 19.688 25.3892 19.54 25.9332 19.54C26.4772 19.54 26.8932 19.688 27.1812 19.984C27.4772 20.272 27.6372 20.664 27.6612 21.16C27.6772 21.48 27.6852 21.684 27.6852 21.772C27.6852 21.852 27.6772 22.012 27.6612 22.252C27.6372 22.74 27.4732 23.124 27.1692 23.404C26.8652 23.676 26.4532 23.812 25.9332 23.812ZM24.9252 28C24.8532 28 24.7932 27.98 24.7452 27.94C24.6972 27.892 24.6732 27.832 24.6732 27.76C24.6732 27.712 24.6892 27.668 24.7212 27.628L30.6492 19.828C30.7132 19.74 30.7692 19.68 30.8172 19.648C30.8732 19.616 30.9492 19.6 31.0452 19.6H31.4412C31.5212 19.6 31.5812 19.624 31.6212 19.672C31.6692 19.712 31.6932 19.768 31.6932 19.84C31.6932 19.888 31.6772 19.932 31.6452 19.972L25.7292 27.772C25.6652 27.86 25.6052 27.92 25.5492 27.952C25.5012 27.984 25.4252 28 25.3212 28H24.9252ZM25.9332 23.068C26.2212 23.068 26.4292 22.984 26.5572 22.816C26.6932 22.648 26.7732 22.444 26.7972 22.204C26.8132 21.916 26.8212 21.748 26.8212 21.7C26.8212 21.628 26.8132 21.464 26.7972 21.208C26.7812 20.96 26.7012 20.752 26.5572 20.584C26.4212 20.416 26.2132 20.332 25.9332 20.332C25.6532 20.332 25.4452 20.416 25.3092 20.584C25.1732 20.752 25.0972 20.96 25.0812 21.208C25.0732 21.336 25.0692 21.5 25.0692 21.7C25.0692 21.892 25.0732 22.06 25.0812 22.204C25.1052 22.452 25.1812 22.66 25.3092 22.828C25.4452 22.988 25.6532 23.068 25.9332 23.068ZM30.4212 28.072C29.9012 28.072 29.4892 27.928 29.1852 27.64C28.8892 27.344 28.7252 26.952 28.6932 26.464C28.6852 26.328 28.6812 26.152 28.6812 25.936C28.6812 25.704 28.6852 25.516 28.6932 25.372C28.7252 24.876 28.8852 24.484 29.1732 24.196C29.4692 23.9 29.8852 23.752 30.4212 23.752C30.9652 23.752 31.3812 23.9 31.6692 24.196C31.9652 24.484 32.1292 24.876 32.1612 25.372C32.1772 25.66 32.1852 25.848 32.1852 25.936C32.1852 26.016 32.1772 26.192 32.1612 26.464C32.1292 26.952 31.9612 27.344 31.6572 27.64C31.3532 27.928 30.9412 28.072 30.4212 28.072ZM30.4212 27.28C30.7092 27.28 30.9172 27.196 31.0452 27.028C31.1812 26.86 31.2612 26.656 31.2852 26.416C31.3012 26.128 31.3092 25.96 31.3092 25.912C31.3092 25.84 31.3012 25.676 31.2852 25.42C31.2692 25.172 31.1932 24.964 31.0572 24.796C30.9212 24.628 30.7092 24.544 30.4212 24.544C30.1412 24.544 29.9332 24.628 29.7972 24.796C29.6612 24.964 29.5852 25.172 29.5692 25.42C29.5612 25.548 29.5572 25.712 29.5572 25.912C29.5572 26.104 29.5612 26.272 29.5692 26.416C29.5932 26.656 29.6692 26.86 29.7972 27.028C29.9332 27.196 30.1412 27.28 30.4212 27.28Z" fill="#202A31"/>
<circle cx="24" cy="24" r="23.75" transform="rotate(-90 24 24)" stroke="#202A31" stroke-width="0.5" stroke-miterlimit="16" stroke-linejoin="round" stroke-dasharray="1 1"/>
<circle cx="24" cy="24" r="20.25" stroke="#202A31" stroke-width="0.5" stroke-dasharray="1 1"/>
<circle cx="24" cy="24" r="24" transform="rotate(-90 24 24)" fill="#F0F5FF"/>
<circle cx="24" cy="24" r="20" fill="white"/>
<path d="M19.804 28.12C18.772 28.12 18.016 27.82 17.536 27.22C17.056 26.62 16.8 25.832 16.768 24.856C16.76 24.64 16.756 24.292 16.756 23.812C16.756 23.316 16.76 22.956 16.768 22.732C16.792 21.772 17.048 20.992 17.536 20.392C18.024 19.784 18.78 19.48 19.804 19.48C20.836 19.48 21.596 19.784 22.084 20.392C22.572 20.992 22.828 21.772 22.852 22.732C22.868 23.18 22.876 23.54 22.876 23.812C22.876 24.076 22.868 24.424 22.852 24.856C22.82 25.832 22.564 26.62 22.084 27.22C21.604 27.82 20.844 28.12 19.804 28.12ZM19.804 27.088C20.404 27.088 20.856 26.888 21.16 26.488C21.472 26.088 21.636 25.524 21.652 24.796C21.668 24.332 21.676 23.996 21.676 23.788C21.676 23.564 21.668 23.236 21.652 22.804C21.636 22.084 21.476 21.52 21.172 21.112C20.868 20.704 20.412 20.5 19.804 20.5C19.204 20.5 18.748 20.704 18.436 21.112C18.132 21.52 17.972 22.084 17.956 22.804L17.944 23.788L17.956 24.796C17.972 25.524 18.132 26.088 18.436 26.488C18.748 26.888 19.204 27.088 19.804 27.088ZM25.9332 23.812C25.4132 23.812 25.0012 23.676 24.6972 23.404C24.4012 23.124 24.2372 22.74 24.2052 22.252C24.1972 22.116 24.1932 21.94 24.1932 21.724C24.1932 21.492 24.1972 21.304 24.2052 21.16C24.2292 20.664 24.3852 20.272 24.6732 19.984C24.9692 19.688 25.3892 19.54 25.9332 19.54C26.4772 19.54 26.8932 19.688 27.1812 19.984C27.4772 20.272 27.6372 20.664 27.6612 21.16C27.6772 21.48 27.6852 21.684 27.6852 21.772C27.6852 21.852 27.6772 22.012 27.6612 22.252C27.6372 22.74 27.4732 23.124 27.1692 23.404C26.8652 23.676 26.4532 23.812 25.9332 23.812ZM24.9252 28C24.8532 28 24.7932 27.98 24.7452 27.94C24.6972 27.892 24.6732 27.832 24.6732 27.76C24.6732 27.712 24.6892 27.668 24.7212 27.628L30.6492 19.828C30.7132 19.74 30.7692 19.68 30.8172 19.648C30.8732 19.616 30.9492 19.6 31.0452 19.6H31.4412C31.5212 19.6 31.5812 19.624 31.6212 19.672C31.6692 19.712 31.6932 19.768 31.6932 19.84C31.6932 19.888 31.6772 19.932 31.6452 19.972L25.7292 27.772C25.6652 27.86 25.6052 27.92 25.5492 27.952C25.5012 27.984 25.4252 28 25.3212 28H24.9252ZM25.9332 23.068C26.2212 23.068 26.4292 22.984 26.5572 22.816C26.6932 22.648 26.7732 22.444 26.7972 22.204C26.8132 21.916 26.8212 21.748 26.8212 21.7C26.8212 21.628 26.8132 21.464 26.7972 21.208C26.7812 20.96 26.7012 20.752 26.5572 20.584C26.4212 20.416 26.2132 20.332 25.9332 20.332C25.6532 20.332 25.4452 20.416 25.3092 20.584C25.1732 20.752 25.0972 20.96 25.0812 21.208C25.0732 21.336 25.0692 21.5 25.0692 21.7C25.0692 21.892 25.0732 22.06 25.0812 22.204C25.1052 22.452 25.1812 22.66 25.3092 22.828C25.4452 22.988 25.6532 23.068 25.9332 23.068ZM30.4212 28.072C29.9012 28.072 29.4892 27.928 29.1852 27.64C28.8892 27.344 28.7252 26.952 28.6932 26.464C28.6852 26.328 28.6812 26.152 28.6812 25.936C28.6812 25.704 28.6852 25.516 28.6932 25.372C28.7252 24.876 28.8852 24.484 29.1732 24.196C29.4692 23.9 29.8852 23.752 30.4212 23.752C30.9652 23.752 31.3812 23.9 31.6692 24.196C31.9652 24.484 32.1292 24.876 32.1612 25.372C32.1772 25.66 32.1852 25.848 32.1852 25.936C32.1852 26.016 32.1772 26.192 32.1612 26.464C32.1292 26.952 31.9612 27.344 31.6572 27.64C31.3532 27.928 30.9412 28.072 30.4212 28.072ZM30.4212 27.28C30.7092 27.28 30.9172 27.196 31.0452 27.028C31.1812 26.86 31.2612 26.656 31.2852 26.416C31.3012 26.128 31.3092 25.96 31.3092 25.912C31.3092 25.84 31.3012 25.676 31.2852 25.42C31.2692 25.172 31.1932 24.964 31.0572 24.796C30.9212 24.628 30.7092 24.544 30.4212 24.544C30.1412 24.544 29.9332 24.628 29.7972 24.796C29.6612 24.964 29.5852 25.172 29.5692 25.42C29.5612 25.548 29.5572 25.712 29.5572 25.912C29.5572 26.104 29.5612 26.272 29.5692 26.416C29.5932 26.656 29.6692 26.86 29.7972 27.028C29.9332 27.196 30.1412 27.28 30.4212 27.28Z" fill="#202A31"/>
</svg>
