<svg width="48" height="48" viewBox="0 0 48 48" fill="none" xmlns="http://www.w3.org/2000/svg">
<circle cx="24" cy="24" r="24" transform="rotate(-90 24 24)" fill="#F0F5FF"/>
<circle cx="24" cy="24" r="20" fill="#F0F5FF"/>
<mask id="path-3-inside-1_124_4310" fill="white">
<path d="M24 0C29.0683 0 34.0065 1.60452 38.1068 4.58359C42.2072 7.56266 45.2592 11.7634 46.8254 16.5836C48.3915 21.4038 48.3915 26.5962 46.8254 31.4164C45.2592 36.2367 42.2072 40.4373 38.1068 43.4164C34.0065 46.3955 29.0683 48 24 48C18.9317 48 13.9935 46.3955 9.89315 43.4164C5.79281 40.4373 2.74083 36.2366 1.17464 31.4164C-0.391548 26.5962 -0.391548 21.4038 1.17464 16.5836L24 24V0Z"/>
</mask>
<path d="M24 0C29.0683 0 34.0065 1.60452 38.1068 4.58359C42.2072 7.56266 45.2592 11.7634 46.8254 16.5836C48.3915 21.4038 48.3915 26.5962 46.8254 31.4164C45.2592 36.2367 42.2072 40.4373 38.1068 43.4164C34.0065 46.3955 29.0683 48 24 48C18.9317 48 13.9935 46.3955 9.89315 43.4164C5.79281 40.4373 2.74083 36.2366 1.17464 31.4164C-0.391548 26.5962 -0.391548 21.4038 1.17464 16.5836L24 24V0Z" stroke="url(#paint0_linear_124_4310)" stroke-width="10" mask="url(#path-3-inside-1_124_4310)"/>
<circle cx="24" cy="24" r="20" fill="white"/>
<path d="M15.816 28.12C15.192 28.12 14.644 28.02 14.172 27.82C13.7 27.612 13.332 27.316 13.068 26.932C12.804 26.548 12.672 26.1 12.672 25.588C12.672 25.116 12.788 24.704 13.02 24.352C13.252 23.992 13.568 23.716 13.968 23.524C13.648 23.34 13.4 23.1 13.224 22.804C13.056 22.5 12.972 22.148 12.972 21.748C12.972 21.044 13.228 20.492 13.74 20.092C14.26 19.684 14.952 19.48 15.816 19.48C16.672 19.48 17.356 19.684 17.868 20.092C18.388 20.492 18.648 21.04 18.648 21.736C18.648 22.136 18.56 22.488 18.384 22.792C18.216 23.088 17.976 23.332 17.664 23.524C18.064 23.716 18.38 23.992 18.612 24.352C18.844 24.704 18.96 25.116 18.96 25.588C18.96 26.1 18.828 26.548 18.564 26.932C18.3 27.316 17.928 27.612 17.448 27.82C16.976 28.02 16.432 28.12 15.816 28.12ZM15.816 23.092C16.296 23.084 16.7 22.96 17.028 22.72C17.356 22.48 17.52 22.164 17.52 21.772C17.52 21.372 17.356 21.052 17.028 20.812C16.708 20.564 16.304 20.44 15.816 20.44C15.32 20.44 14.908 20.56 14.58 20.8C14.26 21.04 14.1 21.364 14.1 21.772C14.1 22.172 14.26 22.492 14.58 22.732C14.908 22.972 15.32 23.092 15.816 23.092ZM15.816 27.16C16.376 27.16 16.844 27.016 17.22 26.728C17.596 26.44 17.784 26.06 17.784 25.588C17.784 25.116 17.596 24.74 17.22 24.46C16.844 24.18 16.376 24.04 15.816 24.04C15.248 24.04 14.776 24.18 14.4 24.46C14.024 24.74 13.836 25.116 13.836 25.588C13.836 26.06 14.024 26.44 14.4 26.728C14.776 27.016 15.248 27.16 15.816 27.16ZM23.4329 28.12C22.4009 28.12 21.6449 27.82 21.1649 27.22C20.6849 26.62 20.4289 25.832 20.3969 24.856C20.3889 24.64 20.3849 24.292 20.3849 23.812C20.3849 23.316 20.3889 22.956 20.3969 22.732C20.4209 21.772 20.6769 20.992 21.1649 20.392C21.6529 19.784 22.4089 19.48 23.4329 19.48C24.4649 19.48 25.2249 19.784 25.7129 20.392C26.2009 20.992 26.4569 21.772 26.4809 22.732C26.4969 23.18 26.5049 23.54 26.5049 23.812C26.5049 24.076 26.4969 24.424 26.4809 24.856C26.4489 25.832 26.1929 26.62 25.7129 27.22C25.2329 27.82 24.4729 28.12 23.4329 28.12ZM23.4329 27.088C24.0329 27.088 24.4849 26.888 24.7889 26.488C25.1009 26.088 25.2649 25.524 25.2809 24.796C25.2969 24.332 25.3049 23.996 25.3049 23.788C25.3049 23.564 25.2969 23.236 25.2809 22.804C25.2649 22.084 25.1049 21.52 24.8009 21.112C24.4969 20.704 24.0409 20.5 23.4329 20.5C22.8329 20.5 22.3769 20.704 22.0649 21.112C21.7609 21.52 21.6009 22.084 21.5849 22.804L21.5729 23.788L21.5849 24.796C21.6009 25.524 21.7609 26.088 22.0649 26.488C22.3769 26.888 22.8329 27.088 23.4329 27.088ZM29.5621 23.812C29.0421 23.812 28.6301 23.676 28.3261 23.404C28.0301 23.124 27.8661 22.74 27.8341 22.252C27.8261 22.116 27.8221 21.94 27.8221 21.724C27.8221 21.492 27.8261 21.304 27.8341 21.16C27.8581 20.664 28.0141 20.272 28.3021 19.984C28.5981 19.688 29.0181 19.54 29.5621 19.54C30.1061 19.54 30.5221 19.688 30.8101 19.984C31.1061 20.272 31.2661 20.664 31.2901 21.16C31.3061 21.48 31.3141 21.684 31.3141 21.772C31.3141 21.852 31.3061 22.012 31.2901 22.252C31.2661 22.74 31.1021 23.124 30.7981 23.404C30.4941 23.676 30.0821 23.812 29.5621 23.812ZM28.5541 28C28.4821 28 28.4221 27.98 28.3741 27.94C28.3261 27.892 28.3021 27.832 28.3021 27.76C28.3021 27.712 28.3181 27.668 28.3501 27.628L34.2781 19.828C34.3421 19.74 34.3981 19.68 34.4461 19.648C34.5021 19.616 34.5781 19.6 34.6741 19.6H35.0701C35.1501 19.6 35.2101 19.624 35.2501 19.672C35.2981 19.712 35.3221 19.768 35.3221 19.84C35.3221 19.888 35.3061 19.932 35.2741 19.972L29.3581 27.772C29.2941 27.86 29.2341 27.92 29.1781 27.952C29.1301 27.984 29.0541 28 28.9501 28H28.5541ZM29.5621 23.068C29.8501 23.068 30.0581 22.984 30.1861 22.816C30.3221 22.648 30.4021 22.444 30.4261 22.204C30.4421 21.916 30.4501 21.748 30.4501 21.7C30.4501 21.628 30.4421 21.464 30.4261 21.208C30.4101 20.96 30.3301 20.752 30.1861 20.584C30.0501 20.416 29.8421 20.332 29.5621 20.332C29.2821 20.332 29.0741 20.416 28.9381 20.584C28.8021 20.752 28.7261 20.96 28.7101 21.208C28.7021 21.336 28.6981 21.5 28.6981 21.7C28.6981 21.892 28.7021 22.06 28.7101 22.204C28.7341 22.452 28.8101 22.66 28.9381 22.828C29.0741 22.988 29.2821 23.068 29.5621 23.068ZM34.0501 28.072C33.5301 28.072 33.1181 27.928 32.8141 27.64C32.5181 27.344 32.3541 26.952 32.3221 26.464C32.3141 26.328 32.3101 26.152 32.3101 25.936C32.3101 25.704 32.3141 25.516 32.3221 25.372C32.3541 24.876 32.5141 24.484 32.8021 24.196C33.0981 23.9 33.5141 23.752 34.0501 23.752C34.5941 23.752 35.0101 23.9 35.2981 24.196C35.5941 24.484 35.7581 24.876 35.7901 25.372C35.8061 25.66 35.8141 25.848 35.8141 25.936C35.8141 26.016 35.8061 26.192 35.7901 26.464C35.7581 26.952 35.5901 27.344 35.2861 27.64C34.9821 27.928 34.5701 28.072 34.0501 28.072ZM34.0501 27.28C34.3381 27.28 34.5461 27.196 34.6741 27.028C34.8101 26.86 34.8901 26.656 34.9141 26.416C34.9301 26.128 34.9381 25.96 34.9381 25.912C34.9381 25.84 34.9301 25.676 34.9141 25.42C34.8981 25.172 34.8221 24.964 34.6861 24.796C34.5501 24.628 34.3381 24.544 34.0501 24.544C33.7701 24.544 33.5621 24.628 33.4261 24.796C33.2901 24.964 33.2141 25.172 33.1981 25.42C33.1901 25.548 33.1861 25.712 33.1861 25.912C33.1861 26.104 33.1901 26.272 33.1981 26.416C33.2221 26.656 33.2981 26.86 33.4261 27.028C33.5621 27.196 33.7701 27.28 34.0501 27.28Z" fill="url(#paint1_linear_124_4310)"/>
<defs>
<linearGradient id="paint0_linear_124_4310" x1="0" y1="24" x2="48" y2="24" gradientUnits="userSpaceOnUse">
<stop stop-color="#F53C3C"/>
<stop offset="1" stop-color="#F5AB3C"/>
</linearGradient>
<linearGradient id="paint1_linear_124_4310" x1="24.5" y1="15" x2="24.5" y2="33" gradientUnits="userSpaceOnUse">
<stop stop-color="#F53C3C"/>
<stop offset="1" stop-color="#F5AB3C"/>
</linearGradient>
</defs>
</svg>
