<svg width="48" height="48" viewBox="0 0 48 48" fill="none" xmlns="http://www.w3.org/2000/svg">
<circle cx="24" cy="24" r="24" transform="rotate(-90 24 24)" fill="#F0F5FF"/>
<mask id="path-2-inside-1_124_4358" fill="white">
<path d="M24 0C28.4261 0 32.7661 1.22399 36.54 3.53664C40.3139 5.84929 43.3747 9.16051 45.3842 13.1042C47.3936 17.0479 48.2733 21.4705 47.926 25.883C47.5787 30.2955 46.018 34.526 43.4164 38.1068C40.8148 41.6877 37.2736 44.4793 33.1844 46.1731C29.0952 47.8669 24.6172 48.3969 20.2456 47.7045C15.8739 47.0121 11.7789 45.1243 8.41325 42.2497C5.04759 39.3752 2.5424 35.6259 1.17464 31.4164L24 24V0Z"/>
</mask>
<path d="M24 0C28.4261 0 32.7661 1.22399 36.54 3.53664C40.3139 5.84929 43.3747 9.16051 45.3842 13.1042C47.3936 17.0479 48.2733 21.4705 47.926 25.883C47.5787 30.2955 46.018 34.526 43.4164 38.1068C40.8148 41.6877 37.2736 44.4793 33.1844 46.1731C29.0952 47.8669 24.6172 48.3969 20.2456 47.7045C15.8739 47.0121 11.7789 45.1243 8.41325 42.2497C5.04759 39.3752 2.5424 35.6259 1.17464 31.4164L24 24V0Z" stroke="url(#paint0_linear_124_4358)" stroke-width="10" mask="url(#path-2-inside-1_124_4358)"/>
<circle cx="24" cy="24" r="20" fill="white"/>
<path d="M13.788 28C13.716 28 13.656 27.976 13.608 27.928C13.568 27.872 13.548 27.808 13.548 27.736L13.572 27.628L16.56 20.644H12.624C12.544 20.644 12.476 20.62 12.42 20.572C12.372 20.516 12.348 20.448 12.348 20.368V19.888C12.348 19.8 12.372 19.732 12.42 19.684C12.476 19.628 12.544 19.6 12.624 19.6H17.544C17.632 19.6 17.7 19.628 17.748 19.684C17.804 19.732 17.832 19.8 17.832 19.888V20.332C17.832 20.476 17.8 20.632 17.736 20.8L14.784 27.7C14.744 27.788 14.696 27.86 14.64 27.916C14.592 27.972 14.524 28 14.436 28H13.788ZM21.9563 28.12C20.9243 28.12 20.1683 27.82 19.6883 27.22C19.2083 26.62 18.9523 25.832 18.9203 24.856C18.9123 24.64 18.9083 24.292 18.9083 23.812C18.9083 23.316 18.9123 22.956 18.9203 22.732C18.9443 21.772 19.2003 20.992 19.6883 20.392C20.1763 19.784 20.9323 19.48 21.9563 19.48C22.9883 19.48 23.7483 19.784 24.2363 20.392C24.7243 20.992 24.9803 21.772 25.0043 22.732C25.0203 23.18 25.0283 23.54 25.0283 23.812C25.0283 24.076 25.0203 24.424 25.0043 24.856C24.9723 25.832 24.7163 26.62 24.2363 27.22C23.7563 27.82 22.9963 28.12 21.9563 28.12ZM21.9563 27.088C22.5563 27.088 23.0083 26.888 23.3123 26.488C23.6243 26.088 23.7883 25.524 23.8043 24.796C23.8203 24.332 23.8283 23.996 23.8283 23.788C23.8283 23.564 23.8203 23.236 23.8043 22.804C23.7883 22.084 23.6283 21.52 23.3243 21.112C23.0203 20.704 22.5643 20.5 21.9563 20.5C21.3563 20.5 20.9003 20.704 20.5883 21.112C20.2843 21.52 20.1243 22.084 20.1083 22.804L20.0963 23.788L20.1083 24.796C20.1243 25.524 20.2843 26.088 20.5883 26.488C20.9003 26.888 21.3563 27.088 21.9563 27.088ZM28.0855 23.812C27.5655 23.812 27.1535 23.676 26.8495 23.404C26.5535 23.124 26.3895 22.74 26.3575 22.252C26.3495 22.116 26.3455 21.94 26.3455 21.724C26.3455 21.492 26.3495 21.304 26.3575 21.16C26.3815 20.664 26.5375 20.272 26.8255 19.984C27.1215 19.688 27.5415 19.54 28.0855 19.54C28.6295 19.54 29.0455 19.688 29.3335 19.984C29.6295 20.272 29.7895 20.664 29.8135 21.16C29.8295 21.48 29.8375 21.684 29.8375 21.772C29.8375 21.852 29.8295 22.012 29.8135 22.252C29.7895 22.74 29.6255 23.124 29.3215 23.404C29.0175 23.676 28.6055 23.812 28.0855 23.812ZM27.0775 28C27.0055 28 26.9455 27.98 26.8975 27.94C26.8495 27.892 26.8255 27.832 26.8255 27.76C26.8255 27.712 26.8415 27.668 26.8735 27.628L32.8015 19.828C32.8655 19.74 32.9215 19.68 32.9695 19.648C33.0255 19.616 33.1015 19.6 33.1975 19.6H33.5935C33.6735 19.6 33.7335 19.624 33.7735 19.672C33.8215 19.712 33.8455 19.768 33.8455 19.84C33.8455 19.888 33.8295 19.932 33.7975 19.972L27.8815 27.772C27.8175 27.86 27.7575 27.92 27.7015 27.952C27.6535 27.984 27.5775 28 27.4735 28H27.0775ZM28.0855 23.068C28.3735 23.068 28.5815 22.984 28.7095 22.816C28.8455 22.648 28.9255 22.444 28.9495 22.204C28.9655 21.916 28.9735 21.748 28.9735 21.7C28.9735 21.628 28.9655 21.464 28.9495 21.208C28.9335 20.96 28.8535 20.752 28.7095 20.584C28.5735 20.416 28.3655 20.332 28.0855 20.332C27.8055 20.332 27.5975 20.416 27.4615 20.584C27.3255 20.752 27.2495 20.96 27.2335 21.208C27.2255 21.336 27.2215 21.5 27.2215 21.7C27.2215 21.892 27.2255 22.06 27.2335 22.204C27.2575 22.452 27.3335 22.66 27.4615 22.828C27.5975 22.988 27.8055 23.068 28.0855 23.068ZM32.5735 28.072C32.0535 28.072 31.6415 27.928 31.3375 27.64C31.0415 27.344 30.8775 26.952 30.8455 26.464C30.8375 26.328 30.8335 26.152 30.8335 25.936C30.8335 25.704 30.8375 25.516 30.8455 25.372C30.8775 24.876 31.0375 24.484 31.3255 24.196C31.6215 23.9 32.0375 23.752 32.5735 23.752C33.1175 23.752 33.5335 23.9 33.8215 24.196C34.1175 24.484 34.2815 24.876 34.3135 25.372C34.3295 25.66 34.3375 25.848 34.3375 25.936C34.3375 26.016 34.3295 26.192 34.3135 26.464C34.2815 26.952 34.1135 27.344 33.8095 27.64C33.5055 27.928 33.0935 28.072 32.5735 28.072ZM32.5735 27.28C32.8615 27.28 33.0695 27.196 33.1975 27.028C33.3335 26.86 33.4135 26.656 33.4375 26.416C33.4535 26.128 33.4615 25.96 33.4615 25.912C33.4615 25.84 33.4535 25.676 33.4375 25.42C33.4215 25.172 33.3455 24.964 33.2095 24.796C33.0735 24.628 32.8615 24.544 32.5735 24.544C32.2935 24.544 32.0855 24.628 31.9495 24.796C31.8135 24.964 31.7375 25.172 31.7215 25.42C31.7135 25.548 31.7095 25.712 31.7095 25.912C31.7095 26.104 31.7135 26.272 31.7215 26.416C31.7455 26.656 31.8215 26.86 31.9495 27.028C32.0855 27.196 32.2935 27.28 32.5735 27.28Z" fill="url(#paint1_linear_124_4358)"/>
<defs>
<linearGradient id="paint0_linear_124_4358" x1="0" y1="24" x2="48" y2="24" gradientUnits="userSpaceOnUse">
<stop stop-color="#F53C3C"/>
<stop offset="1" stop-color="#F5AB3C"/>
</linearGradient>
<linearGradient id="paint1_linear_124_4358" x1="23.5" y1="15" x2="23.5" y2="33" gradientUnits="userSpaceOnUse">
<stop stop-color="#F53C3C"/>
<stop offset="1" stop-color="#F5AB3C"/>
</linearGradient>
</defs>
</svg>
