<svg width="20" height="20" viewBox="0 0 20 20" fill="none" xmlns="http://www.w3.org/2000/svg">
<mask id="mask0_546_5355" style="mask-type:alpha" maskUnits="userSpaceOnUse" x="0" y="0" width="20" height="20">
<rect width="20" height="20" fill="#D9D9D9"/>
</mask>
<g mask="url(#mask0_546_5355)">
<path d="M7.70833 18.3332L7.375 15.6665C7.19444 15.5971 7.02431 15.5137 6.86458 15.4165C6.70486 15.3193 6.54861 15.2151 6.39583 15.104L3.91667 16.1457L1.625 12.1873L3.77083 10.5623C3.75694 10.4651 3.75 10.3714 3.75 10.2811V9.71859C3.75 9.62831 3.75694 9.53456 3.77083 9.43734L1.625 7.81234L3.91667 3.854L6.39583 4.89567C6.54861 4.78456 6.70833 4.68039 6.875 4.58317C7.04167 4.48595 7.20833 4.40262 7.375 4.33317L7.70833 1.6665H12.2917L12.625 4.33317C12.8056 4.40262 12.9757 4.48595 13.1354 4.58317C13.2951 4.68039 13.4514 4.78456 13.6042 4.89567L16.0833 3.854L18.375 7.81234L16.2292 9.43734C16.2431 9.53456 16.25 9.62831 16.25 9.71859V10.2811C16.25 10.3714 16.2361 10.4651 16.2083 10.5623L18.3542 12.1873L16.0625 16.1457L13.6042 15.104C13.4514 15.2151 13.2917 15.3193 13.125 15.4165C12.9583 15.5137 12.7917 15.5971 12.625 15.6665L12.2917 18.3332H7.70833ZM10.0417 12.9165C10.8472 12.9165 11.5347 12.6318 12.1042 12.0623C12.6736 11.4929 12.9583 10.8054 12.9583 9.99984C12.9583 9.19428 12.6736 8.50678 12.1042 7.93734C11.5347 7.36789 10.8472 7.08317 10.0417 7.08317C9.22222 7.08317 8.53125 7.36789 7.96875 7.93734C7.40625 8.50678 7.125 9.19428 7.125 9.99984C7.125 10.8054 7.40625 11.4929 7.96875 12.0623C8.53125 12.6318 9.22222 12.9165 10.0417 12.9165ZM10.0417 11.2498C9.69444 11.2498 9.39931 11.1283 9.15625 10.8853C8.91319 10.6422 8.79167 10.3471 8.79167 9.99984C8.79167 9.65262 8.91319 9.35748 9.15625 9.11442C9.39931 8.87136 9.69444 8.74984 10.0417 8.74984C10.3889 8.74984 10.684 8.87136 10.9271 9.11442C11.1701 9.35748 11.2917 9.65262 11.2917 9.99984C11.2917 10.3471 11.1701 10.6422 10.9271 10.8853C10.684 11.1283 10.3889 11.2498 10.0417 11.2498ZM9.16667 16.6665H10.8125L11.1042 14.4582C11.5347 14.3471 11.934 14.1839 12.3021 13.9686C12.6701 13.7533 13.0069 13.4929 13.3125 13.1873L15.375 14.0415L16.1875 12.6248L14.3958 11.2707C14.4653 11.0762 14.5139 10.8714 14.5417 10.6561C14.5694 10.4408 14.5833 10.2221 14.5833 9.99984C14.5833 9.77761 14.5694 9.55887 14.5417 9.34359C14.5139 9.12831 14.4653 8.92345 14.3958 8.729L16.1875 7.37484L15.375 5.95817L13.3125 6.83317C13.0069 6.51373 12.6701 6.24637 12.3021 6.03109C11.934 5.81581 11.5347 5.65262 11.1042 5.5415L10.8333 3.33317H9.1875L8.89583 5.5415C8.46528 5.65262 8.06597 5.81581 7.69792 6.03109C7.32986 6.24637 6.99306 6.50678 6.6875 6.81234L4.625 5.95817L3.8125 7.37484L5.60417 8.70817C5.53472 8.9165 5.48611 9.12484 5.45833 9.33317C5.43056 9.5415 5.41667 9.76373 5.41667 9.99984C5.41667 10.2221 5.43056 10.4373 5.45833 10.6457C5.48611 10.854 5.53472 11.0623 5.60417 11.2707L3.8125 12.6248L4.625 14.0415L6.6875 13.1665C6.99306 13.4859 7.32986 13.7533 7.69792 13.9686C8.06597 14.1839 8.46528 14.3471 8.89583 14.4582L9.16667 16.6665Z" fill="#212121"/>
</g>
</svg>
