<svg width="24" height="24" viewBox="0 0 24 24" fill="none" xmlns="http://www.w3.org/2000/svg">
<path d="M21.5306 10.2806L17.0306 14.7806C16.8899 14.9213 16.699 15.0003 16.5 15.0003C16.301 15.0003 16.1101 14.9213 15.9694 14.7806C15.8286 14.6398 15.7496 14.449 15.7496 14.2499C15.7496 14.0509 15.8286 13.86 15.9694 13.7193L19.1897 10.4999H15.4688C13.6394 10.4994 11.8617 11.107 10.4153 12.227C8.96889 13.3471 7.93578 14.9161 7.47844 16.6874C7.42871 16.8801 7.30447 17.0452 7.13305 17.1463C6.96163 17.2474 6.75707 17.2762 6.56437 17.2265C6.37168 17.1768 6.20663 17.0525 6.10554 16.8811C6.00444 16.7097 5.97558 16.5051 6.02531 16.3124C6.56495 14.2185 7.78571 12.3636 9.49537 11.0398C11.205 9.7159 13.3064 8.99829 15.4688 8.99993H19.1916L15.9694 5.78055C15.8997 5.71087 15.8444 5.62815 15.8067 5.5371C15.769 5.44606 15.7496 5.34847 15.7496 5.24993C15.7496 5.15138 15.769 5.0538 15.8067 4.96276C15.8444 4.87171 15.8997 4.78899 15.9694 4.7193C16.1101 4.57857 16.301 4.49951 16.5 4.49951C16.5985 4.49951 16.6961 4.51892 16.7872 4.55663C16.8782 4.59435 16.9609 4.64962 17.0306 4.7193L21.5306 9.2193C21.6004 9.28896 21.6557 9.37168 21.6934 9.46272C21.7312 9.55377 21.7506 9.65137 21.7506 9.74993C21.7506 9.84849 21.7312 9.94609 21.6934 10.0371C21.6557 10.1282 21.6004 10.2109 21.5306 10.2806ZM18 19.4999H3.75V8.24993C3.75 8.05102 3.67098 7.86025 3.53033 7.7196C3.38968 7.57895 3.19891 7.49993 3 7.49993C2.80109 7.49993 2.61032 7.57895 2.46967 7.7196C2.32902 7.86025 2.25 8.05102 2.25 8.24993V19.4999C2.25 19.8978 2.40804 20.2793 2.68934 20.5606C2.97064 20.8419 3.35218 20.9999 3.75 20.9999H18C18.1989 20.9999 18.3897 20.9209 18.5303 20.7803C18.671 20.6396 18.75 20.4488 18.75 20.2499C18.75 20.051 18.671 19.8603 18.5303 19.7196C18.3897 19.5789 18.1989 19.4999 18 19.4999Z" fill="black"/>
</svg>
