<svg width="25" height="24" viewBox="0 0 25 24" fill="none" xmlns="http://www.w3.org/2000/svg">
<path d="M11.7112 3.75V1.5C11.7112 1.30109 11.7902 1.11032 11.9309 0.96967C12.0715 0.829018 12.2623 0.75 12.4612 0.75C12.6601 0.75 12.8509 0.829018 12.9915 0.96967C13.1322 1.11032 13.2112 1.30109 13.2112 1.5V3.75C13.2112 3.94891 13.1322 4.13968 12.9915 4.28033C12.8509 4.42098 12.6601 4.5 12.4612 4.5C12.2623 4.5 12.0715 4.42098 11.9309 4.28033C11.7902 4.13968 11.7112 3.94891 11.7112 3.75ZM18.4612 12C18.4612 13.1867 18.1093 14.3467 17.45 15.3334C16.7907 16.3201 15.8536 17.0892 14.7573 17.5433C13.6609 17.9974 12.4545 18.1162 11.2906 17.8847C10.1268 17.6532 9.05766 17.0818 8.21854 16.2426C7.37943 15.4035 6.80798 14.3344 6.57647 13.1705C6.34496 12.0067 6.46378 10.8003 6.9179 9.7039C7.37203 8.60754 8.14107 7.67047 9.12776 7.01118C10.1145 6.35189 11.2745 6 12.4612 6C14.0519 6.00174 15.5771 6.63444 16.7019 7.75928C17.8267 8.88412 18.4594 10.4092 18.4612 12ZM16.9612 12C16.9612 11.11 16.6973 10.24 16.2028 9.49993C15.7083 8.75991 15.0055 8.18314 14.1833 7.84254C13.361 7.50195 12.4562 7.41283 11.5833 7.58647C10.7104 7.7601 9.90854 8.18868 9.2792 8.81802C8.64987 9.44736 8.22128 10.2492 8.04765 11.1221C7.87401 11.995 7.96313 12.8998 8.30372 13.7221C8.64432 14.5443 9.22109 15.2471 9.96111 15.7416C10.7011 16.2361 11.5712 16.5 12.4612 16.5C13.6543 16.4988 14.7981 16.0243 15.6418 15.1806C16.4854 14.337 16.9599 13.1931 16.9612 12ZM5.93056 6.53063C6.07129 6.67136 6.26216 6.75042 6.46118 6.75042C6.6602 6.75042 6.85108 6.67136 6.99181 6.53063C7.13254 6.38989 7.2116 6.19902 7.2116 6C7.2116 5.80098 7.13254 5.61011 6.99181 5.46938L5.49181 3.96938C5.35108 3.82864 5.1602 3.74958 4.96118 3.74958C4.76216 3.74958 4.57129 3.82864 4.43056 3.96938C4.28983 4.11011 4.21076 4.30098 4.21076 4.5C4.21076 4.69902 4.28983 4.88989 4.43056 5.03062L5.93056 6.53063ZM5.93056 17.4694L4.43056 18.9694C4.28983 19.1101 4.21076 19.301 4.21076 19.5C4.21076 19.699 4.28983 19.8899 4.43056 20.0306C4.57129 20.1714 4.76216 20.2504 4.96118 20.2504C5.1602 20.2504 5.35108 20.1714 5.49181 20.0306L6.99181 18.5306C7.06149 18.4609 7.11677 18.3782 7.15448 18.2872C7.19219 18.1961 7.2116 18.0985 7.2116 18C7.2116 17.9015 7.19219 17.8039 7.15448 17.7128C7.11677 17.6218 7.06149 17.5391 6.99181 17.4694C6.92212 17.3997 6.8394 17.3444 6.74835 17.3067C6.65731 17.269 6.55973 17.2496 6.46118 17.2496C6.36264 17.2496 6.26505 17.269 6.17401 17.3067C6.08296 17.3444 6.00024 17.3997 5.93056 17.4694ZM18.4612 6.75C18.5597 6.75008 18.6573 6.73074 18.7483 6.6931C18.8394 6.65546 18.9221 6.60025 18.9918 6.53063L20.4918 5.03062C20.6325 4.88989 20.7116 4.69902 20.7116 4.5C20.7116 4.30098 20.6325 4.11011 20.4918 3.96938C20.3511 3.82864 20.1602 3.74958 19.9612 3.74958C19.7622 3.74958 19.5713 3.82864 19.4306 3.96938L17.9306 5.46938C17.8255 5.57427 17.754 5.70796 17.725 5.85352C17.696 5.99908 17.7109 6.14998 17.7677 6.28709C17.8245 6.42421 17.9207 6.54139 18.0442 6.62379C18.1676 6.70619 18.3128 6.75012 18.4612 6.75ZM18.9918 17.4694C18.8511 17.3286 18.6602 17.2496 18.4612 17.2496C18.2622 17.2496 18.0713 17.3286 17.9306 17.4694C17.7898 17.6101 17.7108 17.801 17.7108 18C17.7108 18.199 17.7898 18.3899 17.9306 18.5306L19.4306 20.0306C19.5002 20.1003 19.583 20.1556 19.674 20.1933C19.7651 20.231 19.8626 20.2504 19.9612 20.2504C20.0597 20.2504 20.1573 20.231 20.2484 20.1933C20.3394 20.1556 20.4221 20.1003 20.4918 20.0306C20.5615 19.9609 20.6168 19.8782 20.6545 19.7872C20.6922 19.6961 20.7116 19.5985 20.7116 19.5C20.7116 19.4015 20.6922 19.3039 20.6545 19.2128C20.6168 19.1218 20.5615 19.0391 20.4918 18.9694L18.9918 17.4694ZM4.96118 12C4.96118 11.8011 4.88216 11.6103 4.74151 11.4697C4.60086 11.329 4.41009 11.25 4.21118 11.25H1.96118C1.76227 11.25 1.5715 11.329 1.43085 11.4697C1.2902 11.6103 1.21118 11.8011 1.21118 12C1.21118 12.1989 1.2902 12.3897 1.43085 12.5303C1.5715 12.671 1.76227 12.75 1.96118 12.75H4.21118C4.41009 12.75 4.60086 12.671 4.74151 12.5303C4.88216 12.3897 4.96118 12.1989 4.96118 12ZM12.4612 19.5C12.2623 19.5 12.0715 19.579 11.9309 19.7197C11.7902 19.8603 11.7112 20.0511 11.7112 20.25V22.5C11.7112 22.6989 11.7902 22.8897 11.9309 23.0303C12.0715 23.171 12.2623 23.25 12.4612 23.25C12.6601 23.25 12.8509 23.171 12.9915 23.0303C13.1322 22.8897 13.2112 22.6989 13.2112 22.5V20.25C13.2112 20.0511 13.1322 19.8603 12.9915 19.7197C12.8509 19.579 12.6601 19.5 12.4612 19.5ZM22.9612 11.25H20.7112C20.5123 11.25 20.3215 11.329 20.1809 11.4697C20.0402 11.6103 19.9612 11.8011 19.9612 12C19.9612 12.1989 20.0402 12.3897 20.1809 12.5303C20.3215 12.671 20.5123 12.75 20.7112 12.75H22.9612C23.1601 12.75 23.3509 12.671 23.4915 12.5303C23.6322 12.3897 23.7112 12.1989 23.7112 12C23.7112 11.8011 23.6322 11.6103 23.4915 11.4697C23.3509 11.329 23.1601 11.25 22.9612 11.25Z" fill="#7D7D7D"/>
</svg>
