<svg width="100" height="48" viewBox="0 0 100 48" fill="none" xmlns="http://www.w3.org/2000/svg">
<g clip-path="url(#clip0_434_5682)">
<mask id="mask0_434_5682" style="mask-type:luminance" maskUnits="userSpaceOnUse" x="-2" y="-1" width="102" height="49">
<path d="M-1.89917 48H100V-0.000179291H-1.89917V48Z" fill="white"/>
</mask>
<g mask="url(#mask0_434_5682)">
<path d="M13.733 0.514876C12.1589 0.514876 12.1787 1.28792 12.1787 3.70516V9.41038C12.1787 12.1052 10.5063 14.126 7.04359 14.126C3.79723 14.126 1.84967 12.5406 1.79042 9.17259V1.94162C1.79042 0.555098 1.04291 0.534766 0 0.514876V-4.19617e-05C0.924836 0.0198479 1.82948 0.0397367 2.71481 0.0397367C3.62034 0.0397367 4.52542 0.0198479 5.50907 -4.19617e-05V0.514876C4.46616 0.534766 3.71822 0.555098 3.71822 1.94162V8.67756C3.71822 11.0347 4.48592 13.3136 7.55495 13.3136C10.8211 13.3136 11.1358 10.7775 11.1358 9.41038V3.76395C11.1358 0.514876 11.0177 0.574545 9.2668 0.514876V-4.19617e-05C10.0933 0.0198479 10.9194 0.0397367 11.7459 0.0397367C12.4144 0.0397367 13.064 -4.19617e-05 13.733 -4.19617e-05V0.514876Z" fill="#B72829"/>
<path d="M23.9751 10.3765H23.6582L16.457 2.41842V7.58971C16.457 9.50309 16.6085 9.8916 18.0956 9.8916V10.2518C17.4899 10.2518 16.8701 10.2244 16.2644 10.2244C15.6586 10.2244 15.0388 10.2386 14.4331 10.2518V9.8916C15.2728 9.8916 15.9062 9.8916 15.9062 8.13071V2.55632C15.9062 1.36472 15.3966 0.934662 14.2128 0.934662V0.573997C14.6394 0.58814 15.0525 0.601843 15.4795 0.601843C15.8513 0.601843 16.2367 0.573997 16.6085 0.573997C17.1729 1.41997 18.4533 2.68141 20.0234 4.4286C21.1936 5.73203 22.4884 7.10441 23.4243 8.13071V2.61202C23.4243 1.33643 23.135 0.947922 21.7581 0.934662V0.573997C22.3919 0.58814 23.0393 0.601843 23.6723 0.601843C24.2091 0.601843 24.7323 0.573997 25.2691 0.573997V0.934662C24.4294 0.934662 23.9751 1.00361 23.9751 2.36273V10.3765Z" fill="#B72829"/>
<path d="M27.2528 1.93256C27.2528 0.96195 26.7296 0.947806 26.0001 0.934105V0.573883C26.6467 0.588027 27.2805 0.601287 27.9003 0.601287C28.5332 0.601287 29.167 0.588027 29.8548 0.573883V0.934105C29.1253 0.947806 28.6021 0.96195 28.6021 1.93256V8.89303C28.6021 9.86364 29.1253 9.87734 29.8548 9.89149V10.2517C29.1943 10.2517 28.6021 10.2243 27.9964 10.2243C27.3358 10.2243 26.6884 10.2384 26.0001 10.2517V9.89149C26.7296 9.87734 27.2528 9.86364 27.2528 8.89303V1.93256Z" fill="#B72829"/>
<path d="M32.8293 4.71943C32.4856 3.83192 32.0857 2.93114 31.7693 2.03036C31.4528 1.19809 31.232 0.934668 30.3239 0.934668V0.574003C30.9704 0.588147 31.6178 0.601849 32.2653 0.601849C32.8429 0.601849 33.4355 0.574003 34.0135 0.574003V0.934668C33.8072 0.947927 33.6145 0.947927 33.4214 0.976214C33.2287 0.989916 33.0637 1.10086 33.0637 1.30903C33.0637 1.76649 33.7936 3.44385 33.9446 3.84606L35.7763 8.58818L36.8227 5.84297C37.1537 4.94131 37.5395 4.05379 37.8279 3.15302C37.9657 2.70926 38.255 2.03036 38.255 1.57246C38.255 0.920965 37.7041 0.96207 37.2085 0.934668V0.574003C37.7449 0.588147 38.2958 0.601849 38.8335 0.601849C39.2606 0.601849 39.6872 0.588147 40.1139 0.574003V0.934668C39.646 0.934668 39.3843 1.14284 39.1912 1.47566C39.1087 1.62771 38.1725 4.02683 38.1448 4.09578L35.6249 10.4604H35.1157L32.8293 4.71943Z" fill="#B72829"/>
<path d="M43.322 4.95534H45.1401C46.2554 4.95534 46.2554 4.08196 46.2963 3.76285H46.5715C46.5447 4.06782 46.5166 4.81655 46.5166 5.31556C46.5166 5.75932 46.586 6.41125 46.5715 6.85501H46.2963C46.2963 5.52418 45.856 5.52418 44.7955 5.52418H43.322V7.88043C43.322 9.41988 43.3773 9.80839 44.7411 9.80839H45.5944C46.9437 9.739 47.5499 9.55867 48.0871 8.07535L48.4172 8.1306C48.1968 8.82364 47.9905 9.53082 47.8527 10.2517C46.4758 10.2517 45.0988 10.2243 43.7215 10.2243C42.7027 10.2243 41.6839 10.2243 40.6652 10.2517V9.89149C41.8635 9.89149 41.9732 9.66961 41.9732 8.32419V2.16814C41.9732 1.03179 41.7528 0.976094 40.6652 0.934547V0.573883C41.5882 0.601728 42.5241 0.601728 43.4463 0.601728C44.7679 0.601728 46.0759 0.601728 47.412 0.573883V2.64019L47.1368 2.70914C46.9305 1.40571 46.3107 1.01764 44.9338 1.01764H43.322V4.95534Z" fill="#B72829"/>
<path d="M52.3143 1.01769C51.9697 1.01769 51.7366 1.05879 51.4882 1.10078V5.16312C51.6945 5.20511 51.9837 5.23251 52.2177 5.23251C53.9115 5.23251 54.5721 4.10941 54.5721 3.11096C54.5721 1.90521 53.9396 1.01769 52.3143 1.01769ZM51.4882 5.67627V8.89308C51.4882 9.86369 52.0118 9.87739 52.7409 9.89153V10.2522C52.0803 10.2522 51.4882 10.2244 50.882 10.2244C50.221 10.2244 49.574 10.2385 48.8857 10.2522V9.89153C49.574 9.93264 50.1393 9.75275 50.1393 8.96291V1.93261C50.1393 0.96244 49.6153 0.948296 48.8857 0.934594V0.57393C49.6429 0.588074 50.3044 0.601775 50.9786 0.601775C51.461 0.601775 51.942 0.57393 52.8239 0.57393C55.4263 0.57393 56.0044 2.04355 56.0044 3.0283C56.0044 4.20665 55.123 5.08047 54.0494 5.39914C55.3021 7.24357 55.9636 8.35296 56.5553 9.01816C56.9955 9.51761 57.4094 9.89153 58.1113 9.89153V10.2522C57.7663 10.2522 57.4226 10.2244 57.0789 10.2244C56.6931 10.2244 56.2936 10.2385 55.9083 10.2522C54.6555 8.86567 53.7325 7.24357 52.7409 5.67627H51.4882Z" fill="#B72829"/>
<path d="M58.0287 7.96453H58.3456C58.5795 9.00409 59.3503 10.0167 60.4933 10.0167C61.5538 10.0167 62.3798 9.26752 62.3798 8.17226C62.3798 5.59325 58.3039 6.35612 58.3039 3.08407C58.3039 1.29489 59.5707 0.366267 61.2505 0.366267C61.8158 0.366267 62.3798 0.490909 62.9307 0.574002L63.1511 2.34859H62.8341C62.6827 1.37843 62.0493 0.810025 61.0582 0.810025C60.0118 0.810025 59.4056 1.57246 59.4056 2.58462C59.4056 5.16319 63.6466 4.45645 63.6466 7.64541C63.6466 9.44785 62.0362 10.4604 60.4108 10.4604C59.6944 10.4604 58.9513 10.2938 58.3039 9.9884L58.0287 7.96453Z" fill="#B72829"/>
<path d="M65.7813 1.93256C65.7813 0.96195 65.2585 0.947806 64.5286 0.934105V0.573883C65.1751 0.588027 65.8094 0.601287 66.4287 0.601287C67.0621 0.601287 67.6955 0.588027 68.3842 0.573883V0.934105C67.6538 0.947806 67.1314 0.96195 67.1314 1.93256V8.89303C67.1314 9.86364 67.6538 9.87734 68.3842 9.89149V10.2517C67.7227 10.2517 67.1314 10.2243 66.5253 10.2243C65.8647 10.2243 65.2168 10.2384 64.5286 10.2517V9.89149C65.2585 9.87734 65.7813 9.86364 65.7813 8.89303V1.93256Z" fill="#B72829"/>
<path d="M77.7333 2.39007H77.362C77.3207 1.64178 77.362 1.14277 76.2603 1.14277H74.167V8.89308C74.167 9.86369 74.6906 9.87739 75.4197 9.89153V10.2522C74.7591 10.2522 74.167 10.2244 73.5617 10.2244C72.9002 10.2244 72.2537 10.2385 71.5645 10.2522V9.89153C72.2945 9.87739 72.8177 9.86369 72.8177 8.89308V1.14277H71.0141C69.775 1.14277 69.7197 1.48929 69.4857 2.39007H69.1276L69.2794 0.185862H69.5546C69.7061 0.559786 70.0774 0.57393 70.4215 0.57393H76.6733C77.1689 0.57393 77.513 0.448846 77.5678 0.185862H77.8575L77.7333 2.39007Z" fill="#B72829"/>
<path d="M83.8058 8.89303C83.8058 9.86364 84.329 9.87734 85.0585 9.89149V10.2517C84.3703 10.2384 83.7369 10.2243 83.1039 10.2243C82.4842 10.2243 81.8503 10.2384 81.2029 10.2517V9.89149C81.9333 9.87734 82.4565 9.86364 82.4565 8.89303V5.53744L79.5789 1.54449C79.1794 0.976095 79.1101 1.0035 78.2976 0.934106V0.573883C78.5592 0.588027 79.5789 0.601728 80.2118 0.601728C80.7763 0.601728 81.3271 0.573883 81.8916 0.573883V0.934106C81.6717 0.934106 81.1208 0.934106 81.1208 1.22538C81.1208 1.39157 81.3135 1.71068 81.5751 2.08549L83.5029 4.81655L85.307 2.33433C85.472 2.09919 85.8433 1.65543 85.8433 1.33632C85.8433 0.934106 85.5681 0.934106 84.8658 0.934106V0.573883C85.389 0.588027 85.9263 0.601728 86.4495 0.601728C86.8208 0.601728 87.1926 0.573883 87.5784 0.573883V0.934106C87.0004 0.947807 86.7392 1.32262 86.4355 1.73853L83.8058 5.31556V8.89303Z" fill="#B72829"/>
<path d="M18.3098 24.5062C18.3098 26.0982 19.4392 26.2839 20.4448 26.2839C24.8785 26.2839 26.3353 22.915 26.3353 19.8352C26.3353 15.97 23.8725 13.1797 19.9111 13.1797C19.0696 13.1797 18.6794 13.2416 18.3098 13.2624V24.5062ZM16.2986 14.8129C16.2986 12.9525 15.3339 13.0763 14.4099 13.0555V12.5181C15.2105 12.5596 16.0318 12.5596 16.832 12.5596C17.6945 12.5596 18.8642 12.5181 20.3829 12.5181C25.6993 12.5181 28.5932 16.0942 28.5932 19.7526C28.5932 21.7985 27.4028 26.9451 20.1367 26.9451C19.0898 26.9451 18.1251 26.904 17.1603 26.904C16.2368 26.904 15.3339 26.9247 14.4099 26.9451V26.4076C15.6416 26.2839 16.2368 26.2427 16.2986 24.8372V14.8129Z" fill="#B72829"/>
<path d="M30.9183 16.0218C30.9183 15.0897 30.4162 15.0764 29.7152 15.0631V14.7166C30.3367 14.7303 30.9447 14.7436 31.5399 14.7436C32.1478 14.7436 32.7562 14.7303 33.4167 14.7166V15.0631C32.7166 15.0764 32.2145 15.0897 32.2145 16.0218V22.7043C32.2145 23.636 32.7166 23.6497 33.4167 23.6625V24.009C32.7825 24.009 32.2145 23.9825 31.6325 23.9825C30.9973 23.9825 30.3767 23.9953 29.7152 24.009V23.6625C30.4162 23.6497 30.9183 23.636 30.9183 22.7043V16.0218Z" fill="#B72829"/>
<path d="M34.3677 21.8122H34.6719C34.897 22.8107 35.6371 23.7822 36.7349 23.7822C37.7523 23.7822 38.5455 23.0635 38.5455 22.012C38.5455 19.536 34.6324 20.2683 34.6324 17.1262C34.6324 15.4095 35.8486 14.5172 37.4617 14.5172C38.0038 14.5172 38.5455 14.6369 39.0748 14.7165L39.2864 16.4208H38.9822C38.8365 15.4891 38.2285 14.9432 37.2765 14.9432C36.2713 14.9432 35.6902 15.6756 35.6902 16.6471C35.6902 19.1236 39.7622 18.4443 39.7622 21.5059C39.7622 23.2363 38.2154 24.2083 36.655 24.2083C35.9672 24.2083 35.2539 24.0491 34.6324 23.7557L34.3677 21.8122Z" fill="#B72829"/>
<path d="M48.5787 16.4607H48.2209C48.1819 15.742 48.2209 15.2625 47.164 15.2625H45.1545V22.7043C45.1545 23.636 45.6567 23.6497 46.3577 23.6625V24.009C45.7225 24.009 45.1545 23.9825 44.5725 23.9825C43.9383 23.9825 43.3167 23.9953 42.6561 24.009V23.6625C43.3562 23.6497 43.8592 23.636 43.8592 22.7043V15.2625H42.1268C40.9373 15.2625 40.8841 15.5957 40.6598 16.4607H40.3162L40.4614 14.3445H40.7252C40.871 14.7038 41.2283 14.7166 41.5588 14.7166H47.5603C48.037 14.7166 48.3667 14.5968 48.4198 14.3445H48.6976L48.5787 16.4607Z" fill="#B72829"/>
<path d="M52.5417 15.1427C52.2116 15.1427 51.9873 15.1829 51.749 15.2231V19.1237C51.9469 19.163 52.2248 19.1896 52.4491 19.1896C54.0758 19.1896 54.7109 18.1116 54.7109 17.1529C54.7109 15.9944 54.1021 15.1427 52.5417 15.1427ZM51.749 19.6156V22.7043C51.749 23.636 52.2511 23.6497 52.9521 23.6625V24.009C52.3174 24.009 51.749 23.9825 51.167 23.9825C50.5327 23.9825 49.9112 23.9953 49.2501 24.009V23.6625C49.9112 23.7027 50.4532 23.5299 50.4532 22.771V16.0218C50.4532 15.0897 49.9511 15.0764 49.2501 15.0631V14.7166C49.9774 14.7303 50.6121 14.744 51.26 14.744C51.7222 14.744 52.1853 14.7166 53.0311 14.7166C55.5295 14.7166 56.0852 16.1279 56.0852 17.0733C56.0852 18.2048 55.2394 19.0433 54.2079 19.3496C55.411 21.1202 56.0453 22.1849 56.6146 22.8241C57.0377 23.3032 57.4336 23.6625 58.1078 23.6625V24.009C57.7773 24.009 57.4468 23.9825 57.1163 23.9825C56.7458 23.9825 56.3631 23.9953 55.9922 24.009C54.7899 22.6778 53.9037 21.1202 52.9521 19.6156H51.749Z" fill="#B72829"/>
<path d="M59.5995 16.0218C59.5995 15.0897 59.0965 15.0764 58.3964 15.0631V14.7166C59.0175 14.7303 59.6258 14.7436 60.2206 14.7436C60.8289 14.7436 61.4373 14.7303 62.0979 14.7166V15.0631C61.3969 15.0764 60.8948 15.0897 60.8948 16.0218V22.7043C60.8948 23.636 61.3969 23.6497 62.0979 23.6625V24.009C61.4636 24.009 60.8948 23.9825 60.3136 23.9825C59.6785 23.9825 59.0578 23.9953 58.3964 24.009V23.6625C59.0965 23.6497 59.5995 23.636 59.5995 22.7043V16.0218Z" fill="#B72829"/>
<path d="M70.8093 17.1262H70.4787C70.2272 15.5687 69.1303 14.9432 67.6498 14.9432C66.1293 14.9432 63.9211 15.9682 63.9211 19.1629C63.9211 21.8524 65.8252 23.7822 67.8614 23.7822C69.1694 23.7822 70.2545 22.877 70.5183 21.4794L70.8224 21.5594L70.5183 23.5033C69.9634 23.8489 68.4693 24.2083 67.5963 24.2083C64.5031 24.2083 62.5468 22.1981 62.5468 19.2031C62.5468 16.4743 64.9657 14.5172 67.5572 14.5172C68.6278 14.5172 69.6593 14.8637 70.6771 15.223L70.8093 17.1262Z" fill="#B72829"/>
<path d="M79.6652 16.4607H79.3075C79.268 15.742 79.3075 15.2625 78.2497 15.2625H76.2411V22.7043C76.2411 23.636 76.7428 23.6497 77.4434 23.6625V24.009C76.8091 24.009 76.2411 23.9825 75.6591 23.9825C75.0244 23.9825 74.4033 23.9953 73.7423 24.009V23.6625C74.4424 23.6497 74.9449 23.636 74.9449 22.7043V15.2625H73.2133C72.0229 15.2625 71.9703 15.5957 71.746 16.4607H71.4019L71.5471 14.3445H71.8118C71.9575 14.7038 72.3148 14.7166 72.6445 14.7166H78.6465C79.1227 14.7166 79.4532 14.5968 79.5064 14.3445H79.7842L79.6652 16.4607Z" fill="#B72829"/>
<path d="M88.0551 23.7822C89.9851 23.7822 91.2014 22.1053 91.2014 19.6955C91.2014 17.6721 90.0387 14.9432 87.7773 14.9432C85.8473 14.9432 84.631 16.6206 84.631 19.0303C84.631 21.0533 85.7942 23.7822 88.0551 23.7822ZM87.9362 14.5172C90.5803 14.5172 92.656 16.7806 92.656 19.3092C92.656 21.7455 90.7919 24.2083 87.8962 24.2083C85.2525 24.2083 83.1772 21.9453 83.1772 19.4162C83.1772 16.9799 85.0414 14.5172 87.9362 14.5172Z" fill="#B72829"/>
<path d="M95.3374 22.7042C95.3374 23.6359 95.8395 23.6496 96.5405 23.6625V24.0085C95.879 23.9953 95.2706 23.982 94.6632 23.982C94.068 23.982 93.46 23.9953 92.7854 24.0085V23.6625C93.9358 23.6625 94.0412 23.4494 94.0412 22.1584V16.2476C94.0412 15.1564 93.8296 15.1029 92.7854 15.0631V14.7166C93.7238 14.7166 94.6895 14.7435 95.6543 14.7435C96.857 14.7435 98.0732 14.7435 99.25 14.7166L99.329 16.5942L99.0249 16.6472C98.8932 15.5157 98.3379 15.1427 96.8969 15.1427H95.3374V18.9234H96.8969C97.9811 18.9234 98.0732 18.7634 98.2449 17.8185H98.5491C98.5227 18.0713 98.4964 18.79 98.4964 19.2695C98.4964 19.6956 98.5227 20.321 98.5491 20.6804H98.2853C98.1264 19.7623 98.1136 19.4693 96.9496 19.4693H95.3374V22.7042Z" fill="#B72829"/>
<path d="M37.7966 30.1142H37.3125C36.9442 27.8305 35.3355 26.9133 33.1646 26.9133C30.9356 26.9133 27.6985 28.4161 27.6985 33.1003C27.6985 37.042 30.4897 39.8725 33.4749 39.8725C35.393 39.8725 36.9829 38.5448 37.37 36.4957L37.816 36.6133L37.37 39.4623C36.5566 39.9697 34.3659 40.4966 33.0873 40.4966C28.5518 40.4966 25.6833 37.5494 25.6833 33.1587C25.6833 29.1578 29.2299 26.2884 33.0285 26.2884C34.5986 26.2884 36.1107 26.7958 37.6026 27.3226L37.7966 30.1142Z" fill="#B72829"/>
<path d="M43.5704 37.6642C45.5518 37.6642 46.7997 35.9431 46.7997 33.4697C46.7997 31.3937 45.6062 28.5928 43.286 28.5928C41.3047 28.5928 40.0568 30.3139 40.0568 32.7873C40.0568 34.8633 41.2502 37.6642 43.5704 37.6642ZM43.4488 28.1556C46.1623 28.1556 48.2925 30.4779 48.2925 33.0737C48.2925 35.5736 46.3796 38.1013 43.408 38.1013C40.6941 38.1013 38.5648 35.7791 38.5648 33.1828C38.5648 30.6825 40.4773 28.1556 43.4488 28.1556Z" fill="#B72829"/>
<path d="M55.6592 37.8965C54.5053 37.8695 53.3662 37.8695 52.2127 37.8695C51.0052 37.8695 49.8108 37.8695 48.6169 37.8965V37.5411C49.2951 37.5818 49.8517 37.4045 49.8517 36.6258V29.6989C49.8517 28.7424 49.3364 28.7287 48.6169 28.715V28.3601C49.2547 28.3738 49.8789 28.3871 50.4894 28.3871C51.1136 28.3871 51.7382 28.3738 52.4164 28.3601V28.715C51.6969 28.7287 51.1812 28.7424 51.1812 29.6989V36.0251C51.1812 37.0355 51.3985 37.4594 53.3254 37.4594C54.899 37.4594 55.4415 37.077 55.8624 35.7511L56.1614 35.8059L55.6592 37.8965Z" fill="#B72829"/>
<path d="M65.2376 28.7152C64.1517 28.7152 64.1662 29.2478 64.1662 30.915V34.8496C64.1662 36.7077 63.0122 38.1013 60.6244 38.1013C58.3854 38.1013 57.0423 37.0087 57.0014 34.6856V29.6986C57.0014 28.7422 56.4861 28.7289 55.7667 28.7152V28.3598C56.4045 28.3735 57.0282 28.3872 57.6392 28.3872C58.2638 28.3872 58.888 28.3735 59.5657 28.3598V28.7152C58.8463 28.7289 58.331 28.7422 58.331 29.6986V34.344C58.331 35.97 58.8603 37.5413 60.9769 37.5413C63.2295 37.5413 63.4459 35.7924 63.4459 34.8496V30.9561C63.4459 28.7152 63.3651 28.7559 62.1572 28.7152V28.3598C62.7274 28.3735 63.2971 28.3872 63.8668 28.3872C64.3282 28.3872 64.7763 28.3598 65.2376 28.3598V28.7152Z" fill="#B72829"/>
<path d="M71.8305 36.025C73.0516 33.4694 74.3671 30.9563 75.4934 28.36C75.86 28.3737 76.2405 28.3874 76.6066 28.3874C76.9994 28.3874 77.4068 28.36 77.8 28.36V28.7154C77.3392 28.7154 77.0271 28.7423 76.8506 28.8794C76.6742 29.0155 76.5925 29.248 76.5925 29.6988C76.5925 31.8575 76.715 34.1528 76.769 36.216C76.7962 37.2409 76.891 37.5415 78.2482 37.5415V37.8964C77.5016 37.8964 76.7554 37.8695 76.0096 37.8695C75.3442 37.8695 74.6933 37.8832 74.0283 37.8964V37.5415C74.5036 37.5415 74.8421 37.5415 75.0729 37.4186C75.317 37.2816 75.4258 37.0222 75.4258 36.4896L75.331 29.972H75.3038L72.1018 36.6668C71.9521 36.9948 71.6813 37.6639 71.5724 38.0193H71.3012C70.1477 35.4102 68.8449 32.8546 67.5566 30.273H67.529L67.4205 35.2184C67.4205 35.3961 67.4074 35.888 67.4074 36.0794C67.4074 36.749 67.475 37.1176 67.6918 37.309C67.9095 37.4999 68.2479 37.5415 68.7909 37.5415V37.8964C68.2348 37.8964 67.6655 37.8695 67.1085 37.8695C66.5115 37.8695 65.9005 37.8832 65.3044 37.8964V37.5415C66.2675 37.5415 66.8649 37.309 66.9184 35.4778C66.9728 33.6065 67.0676 31.7483 67.0676 29.8765C67.0676 29.3987 67 29.0977 66.8104 28.9337C66.6199 28.7702 66.3215 28.7154 65.8737 28.7154V28.36C66.3491 28.3737 66.8372 28.3874 67.3126 28.3874C67.597 28.3874 67.895 28.36 68.1808 28.36L71.8305 36.025Z" fill="#B72829"/>
<path d="M80.933 36.3389C80.933 36.9537 80.933 37.4594 82.1541 37.4594C83.7686 37.4594 84.2979 36.3526 84.2979 35.5058C84.2979 33.5517 83.0908 33.1146 81.7473 33.1146H80.933V36.3389ZM80.933 32.6775H81.4483C82.5474 32.6775 83.5113 32.3221 83.5113 30.601C83.5113 29.0297 82.5883 28.7972 81.5032 28.7972C81.3268 28.7972 81.1363 28.8109 80.933 28.8246V32.6775ZM78.3688 37.5416C79.0465 37.5822 79.6035 37.4045 79.6035 36.6258V29.6989C79.6035 28.7424 79.0882 28.7287 78.3688 28.7155V28.3601C78.7485 28.3601 79.1281 28.3871 79.4946 28.3871H79.9156C80.689 28.3871 81.1911 28.3601 81.6792 28.3601C82.6831 28.3601 84.8409 28.6469 84.8409 30.5731C84.8409 31.8443 83.701 32.4998 82.6563 32.7455V32.7729C83.6737 32.7186 85.7091 33.4019 85.7091 35.3281C85.7091 36.7897 84.4612 37.8965 82.0593 37.8965C81.4216 37.8965 80.7838 37.8695 80.146 37.8695C79.5486 37.8695 78.9517 37.8828 78.3688 37.8965V37.5416Z" fill="#B72829"/>
<path d="M87.3501 29.6989C87.3501 28.7424 86.8348 28.7287 86.1158 28.7155V28.3601C86.7532 28.3738 87.3778 28.3875 87.9883 28.3875C88.6125 28.3875 89.2367 28.3738 89.9153 28.3601V28.7155C89.1959 28.7287 88.6805 28.7424 88.6805 29.6989V36.5577C88.6805 37.5142 89.1959 37.5279 89.9153 37.5416V37.8965C89.2634 37.8965 88.6805 37.8695 88.0832 37.8695C87.4318 37.8695 86.794 37.8832 86.1158 37.8965V37.5416C86.8348 37.5279 87.3501 37.5142 87.3501 36.5577V29.6989Z" fill="#B72829"/>
<path d="M92.9667 33.757H95.7623L94.3103 29.7402H94.2831L92.9667 33.757ZM97.5799 35.1776C97.7696 35.7106 98.1365 36.8718 98.3533 37.1727C98.557 37.4459 98.9643 37.5414 99.398 37.5414V37.8967C98.8827 37.8967 98.3533 37.8693 97.838 37.8693C97.1726 37.8693 96.5217 37.883 95.8571 37.8967V37.5414H96.1012C96.4409 37.5414 96.8469 37.4729 96.8469 37.0905C96.8469 36.9403 96.7389 36.5579 96.6437 36.298L95.9655 34.317H92.7771L92.4782 35.2735C92.3018 35.8472 92.1121 36.4757 92.1121 36.8996C92.1121 37.5414 92.5598 37.5144 93.0352 37.5414H93.3464V37.8967C92.8175 37.8967 92.275 37.8693 91.7456 37.8693C91.2027 37.8693 90.6465 37.883 90.104 37.8967V37.5414C90.9314 37.4459 91.0811 37.3367 91.4199 36.5712C91.6372 36.0793 91.7996 35.5467 91.9761 35.041L93.7129 30.1637C93.8218 29.8494 93.9982 29.3438 93.9982 28.9336C93.9982 28.7975 93.9982 28.6883 93.9706 28.5787C94.2563 28.4421 94.5675 28.2918 94.7576 27.9776H94.9889L97.5799 35.1776Z" fill="#B72829"/>
<path d="M92.2725 4.7671C93.1478 4.7671 93.7 4.00599 93.7 2.91339C93.7 1.99538 93.1719 0.757363 92.1466 0.757363C91.2713 0.757363 90.7191 1.51847 90.7191 2.61107C90.7191 3.52909 91.2472 4.7671 92.2725 4.7671ZM92.2185 0.564655C93.4177 0.564655 94.3601 1.59096 94.3601 2.73792C94.3601 3.84334 93.5147 4.96069 92.2005 4.96069C91.0009 4.96069 90.0603 3.93395 90.0603 2.78654C90.0603 1.68112 90.9057 0.564655 92.2185 0.564655Z" fill="#B72829"/>
<path d="M95.5797 4.27805C95.5797 4.70059 95.8075 4.70678 96.1253 4.71297V4.86987C95.8251 4.86413 95.5499 4.85794 95.2738 4.85794C95.0038 4.85794 94.7277 4.86413 94.4222 4.86987V4.71297C94.9437 4.71297 94.9915 4.61617 94.9915 4.03009V1.34898C94.9915 0.854389 94.8959 0.830079 94.4222 0.812399V0.654609C94.8476 0.654609 95.2856 0.666985 95.7232 0.666985C96.2693 0.666985 96.8206 0.666985 97.3543 0.654609L97.3912 1.50632L97.2525 1.53019C97.1924 1.01704 96.9413 0.8482 96.2873 0.8482H95.5797V2.56268H96.2873C96.7793 2.56268 96.8206 2.49108 96.8987 2.06191H97.037C97.0247 2.17638 97.0133 2.50257 97.0133 2.72047C97.0133 2.91318 97.0247 3.19694 97.037 3.36003H96.9167C96.8447 2.94324 96.839 2.81064 96.311 2.81064H95.5797V4.27805Z" fill="#B72829"/>
<path d="M91.3958 6.88347H91.2343C91.2159 6.55728 91.2343 6.34026 90.7545 6.34026H89.8429V9.71575C89.8429 10.1378 90.0702 10.1445 90.3889 10.1502V10.3071C90.101 10.3071 89.8429 10.2956 89.5791 10.2956C89.2911 10.2956 89.0098 10.3014 88.7095 10.3071V10.1502C89.0278 10.1445 89.2556 10.1378 89.2556 9.71575V6.34026H88.4694C87.9304 6.34026 87.9063 6.49098 87.804 6.88347H87.6482L87.714 5.92347H87.8343C87.9001 6.08612 88.0621 6.09231 88.2122 6.09231H90.9345C91.1505 6.09231 91.2997 6.03794 91.3238 5.92347H91.4498L91.3958 6.88347Z" fill="#B72829"/>
<path d="M95.2605 8.00043V6.68418C95.2605 6.26164 95.0327 6.25589 94.7149 6.2497V6.09235C95.0327 6.09898 95.3145 6.10473 95.602 6.10473C95.8605 6.10473 96.1239 6.09235 96.3934 6.09235V6.2497C96.076 6.25589 95.8478 6.26164 95.8478 6.68418V9.71579C95.8478 10.1379 96.076 10.1445 96.3934 10.1503V10.3076C96.1239 10.3014 95.8539 10.2957 95.5844 10.2957C95.3026 10.2957 95.0265 10.3014 94.7149 10.3076V10.1503C95.0327 10.1445 95.2605 10.1379 95.2605 9.71579V8.24838H92.8376V9.71579C92.8376 10.1379 93.0658 10.1445 93.3836 10.1503V10.3076C93.0952 10.3076 92.8376 10.2957 92.5738 10.2957C92.2863 10.2957 92.0045 10.3014 91.7042 10.3076V10.1503C92.0225 10.1445 92.2498 10.1379 92.2498 9.71579V6.68418C92.2498 6.26164 92.0225 6.25589 91.7042 6.2497V6.09235C91.9865 6.09898 92.2621 6.10473 92.5316 6.10473C92.8077 6.10473 93.0838 6.09898 93.3836 6.09235V6.2497C93.0658 6.25589 92.8376 6.26164 92.8376 6.68418V8.00043H95.2605Z" fill="#B72829"/>
<path d="M97.7817 8.00043H98.5731C99.059 8.00043 99.059 7.62031 99.0766 7.48109H99.1964C99.185 7.61413 99.1727 7.94032 99.1727 8.15777C99.1727 8.35092 99.2026 8.63468 99.1964 8.82827H99.0766C99.0766 8.24838 98.8852 8.24838 98.423 8.24838H97.7817V9.27469C97.7817 9.94518 97.8059 10.1145 98.3993 10.1145H98.7707C99.3584 10.084 99.6226 10.0053 99.8566 9.35911L100 9.38341C99.9044 9.68574 99.8144 9.99336 99.7548 10.3076C99.1547 10.3076 98.5551 10.2957 97.9556 10.2957C97.5118 10.2957 97.0676 10.2957 96.6243 10.3076V10.1503C97.1457 10.1503 97.1936 10.0535 97.1936 9.46784V6.78672C97.1936 6.29169 97.0979 6.26738 96.6243 6.2497V6.09235C97.0259 6.10473 97.4337 6.10473 97.8357 6.10473C98.4112 6.10473 98.9813 6.10473 99.5625 6.09235V6.99225L99.4427 7.02274C99.3527 6.45479 99.0832 6.28594 98.4832 6.28594H97.7817V8.00043Z" fill="#B72829"/>
<path d="M85.1763 47.1941C85.1763 47.5008 85.3387 47.6065 85.7957 47.6065H86.2245V47.8562C85.729 47.8562 85.2237 47.8368 84.7286 47.8368C84.1949 47.8368 83.6704 47.8465 83.1559 47.8562V47.6065H83.68C84.1378 47.6065 84.2998 47.5008 84.2998 47.1941V41.9636C83.8709 42.2133 83.3938 42.4723 82.9373 42.7021L82.8131 42.4723C83.6036 42.0692 84.3568 41.5897 85.0811 41.0902L85.1763 41.1287V47.1941Z" fill="#B72829"/>
<path d="M88.8945 41.3399C88.2374 41.3399 87.8279 41.8385 87.8279 42.5487C87.8279 43.3072 88.4854 43.7969 89.0477 44.1801C89.5432 43.8155 89.9054 43.3549 89.9054 42.6349C89.9054 41.8486 89.4475 41.3399 88.8945 41.3399ZM88.5139 44.8047C87.8279 45.3412 87.6369 45.735 87.6369 46.5032C87.6369 47.1459 88.0658 47.6926 88.733 47.6926C89.4287 47.6926 89.8479 47.1941 89.8479 46.5222C89.8479 45.735 89.1148 45.1693 88.5139 44.8047ZM89.2667 44.3052C89.9339 44.6698 90.6673 45.3319 90.6673 46.1576C90.6673 47.1941 89.7526 48.0002 88.7422 48.0002C87.5325 48.0002 86.932 47.1074 86.932 46.4453C86.932 45.5627 87.5509 45.1017 88.3234 44.6504C87.7225 44.238 87.0659 43.7293 87.0659 42.9231C87.0659 41.8102 87.8279 41.0902 88.9142 41.0902C89.8294 41.0902 90.6103 41.6281 90.6103 42.5965C90.6103 43.4031 89.8953 43.9596 89.2667 44.3052Z" fill="#B72829"/>
<path d="M92.9948 41.2342H95.4063L95.2066 42.0019H93.062L92.6805 43C93.8152 43.5759 94.9204 44.2092 94.9204 45.6488C94.9204 47.0017 93.8529 47.9998 92.5282 47.9998C92.0322 47.9998 91.1746 47.7213 91.1746 47.2325C91.1746 47.0115 91.337 46.9443 91.4695 46.9443C91.8606 46.9443 91.8417 47.6926 92.7183 47.6926C93.6339 47.6926 94.1576 46.9443 94.1576 46.0714C94.1576 44.7657 93.0997 44.1995 92.0902 43.6912L92.9948 41.2342Z" fill="#B72829"/>
<path d="M98.3631 47.1941C98.3631 47.5008 98.5251 47.6065 98.9825 47.6065H99.4113V47.8562C98.9157 47.8562 98.4105 47.8368 97.9154 47.8368C97.3817 47.8368 96.8571 47.8465 96.3423 47.8562V47.6065H96.8659C97.3237 47.6065 97.4866 47.5008 97.4866 47.1941V41.9636C97.0577 42.2133 96.5806 42.4723 96.1232 42.7021L95.999 42.4723C96.7904 42.0692 97.5428 41.5897 98.267 41.0902L98.3631 41.1287V47.1941Z" fill="#B72829"/>
<path d="M81.1666 44.0076H38.8704V43.4317H81.1666V44.0076Z" fill="#B72829"/>
</g>
</g>
<defs>
<clipPath id="clip0_434_5682">
<rect width="100" height="48" fill="white"/>
</clipPath>
</defs>
</svg>
